<?xml version="1.0" encoding="UTF-8" standalone="no"?>
<!-- Generator: Adobe Illustrator 12.0.0, SVG Export Plug-In . SVG Version: 6.00 Build 51448)  -->

<svg
   xmlns:dc="http://purl.org/dc/elements/1.1/"
   xmlns:cc="http://creativecommons.org/ns#"
   xmlns:rdf="http://www.w3.org/1999/02/22-rdf-syntax-ns#"
   xmlns:svg="http://www.w3.org/2000/svg"
   xmlns="http://www.w3.org/2000/svg"
   xmlns:sodipodi="http://sodipodi.sourceforge.net/DTD/sodipodi-0.dtd"
   xmlns:inkscape="http://www.inkscape.org/namespaces/inkscape"
   version="1.0"
   id="Layer_1"
   width="500"
   height="500"
   viewBox="0 0 280.22 69.387"
   overflow="visible"
   enable-background="new 0 0 280.22 69.387"
   xml:space="preserve"
   sodipodi:version="0.32"
   inkscape:version="0.48.4 r9939"
   sodipodi:docname="Gstreamer-logo.svg"
   inkscape:output_extension="org.inkscape.output.svg.inkscape"
   style="overflow:visible"><metadata
     id="metadata30"><rdf:RDF><cc:Work
         rdf:about=""><dc:format>image/svg+xml</dc:format><dc:type
           rdf:resource="http://purl.org/dc/dcmitype/StillImage" /></cc:Work></rdf:RDF></metadata><defs
     id="defs28"><inkscape:perspective
       sodipodi:type="inkscape:persp3d"
       inkscape:vp_x="0 : 34.693501 : 1"
       inkscape:vp_y="0 : 1000 : 0"
       inkscape:vp_z="280.22 : 34.693501 : 1"
       inkscape:persp3d-origin="140.11 : 23.129 : 1"
       id="perspective32" /></defs><sodipodi:namedview
     inkscape:window-height="1014"
     inkscape:window-width="1920"
     inkscape:pageshadow="2"
     inkscape:pageopacity="0.0"
     guidetolerance="10.0"
     gridtolerance="10.0"
     objecttolerance="10.0"
     borderopacity="1.0"
     bordercolor="#666666"
     pagecolor="#ffffff"
     id="base"
     showgrid="false"
     inkscape:zoom="1.4854022"
     inkscape:cx="235.07545"
     inkscape:cy="248.5516"
     inkscape:window-x="0"
     inkscape:window-y="27"
     inkscape:current-layer="g2405"
     inkscape:window-maximized="1" /><g
     id="g2405"
     transform="matrix(0.9433986,0,0,0.9433986,7.9310317,1.9634144)"><path
       id="path3"
       d="m 199.551,58.684 c -0.334,-6.834 2.636,-22.747 9.47,-21.247 2.913,0.64 2.118,4.655 1.166,9 -1.282,5.85 -3.5,12.237 -3.5,12.237 0,0 8.334,0.333 8.167,0 0.833,-10.5 3.039,-21.928 9.167,-21.071 5.081,0.71 -1.441,21.071 -1.441,21.071 0,0 6.27,0 7.587,0 -0.272,-3.453 1.59,-11.495 2.635,-17.311 1.045,-5.816 -1.181,-8.36 -5.86,-8.405 -4.679,-0.045 -9.314,4.044 -9.314,4.044 0.182,-3.498 -4.429,-4.05 -4.429,-4.05 -4.93,-0.313 -9.655,3.005 -9.655,3.005 l 0.438,-2.57 -7.425,0 c 0,0 -0.365,4.088 -1.867,11.549 -1.502,7.461 -3.51,13.738 -3.51,13.738 l 8.371,0.01 z"
       style="fill:#8c8c8c"
       inkscape:connector-curvature="0" /><path
       id="path5"
       d="m 250.388,32.759 c -10.167,0 -14.7,7.178 -14.7,14.511 0,7.333 4.332,12.167 13.166,12.167 4.15,0 6.5,-3.834 6.5,-3.834 0,0 0.134,-1.049 -0.65,-0.612 -0.784,0.437 -2.92,1.352 -5.71,1.352 -2.79,0 -5.806,-2.654 -5.806,-9.239 0,0 16.166,0 16,0 0.833,-2.667 1.367,-14.345 -8.8,-14.345 z m 1.483,11.377 -7.76,0 c 0,-5.362 4.29,-9.412 7.211,-7.974 2.66,1.235 0.549,7.974 0.549,7.974 z"
       style="fill:#8c8c8c"
       inkscape:connector-curvature="0" /><path
       id="path7"
       d="m 154.888,32.759 c -10.167,0 -14.7,7.178 -14.7,14.511 0,7.333 4.332,12.167 13.166,12.167 4.15,0 6.5,-3.834 6.5,-3.834 0,0 0.134,-1.049 -0.65,-0.612 -0.784,0.437 -2.92,1.352 -5.71,1.352 -2.79,0 -5.806,-2.654 -5.806,-9.239 0,0 16.166,0 16,0 0.833,-2.667 1.367,-14.345 -8.8,-14.345 z m 1.483,11.377 -7.76,0 c 0,-5.362 3.621,-8.836 6.542,-7.397 2.66,1.234 1.218,7.397 1.218,7.397 z"
       style="fill:#8c8c8c"
       inkscape:connector-curvature="0" /><path
       id="path9"
       d="m 268.725,59.088 -8.198,0 c 0,0 4.786,-17.192 5.203,-25.621 -0.072,0.072 7.11,0 7.11,0 0,0 -0.617,1.9 -0.885,3.559 2.031,-2.249 2.719,-4.272 8.232,-4.272 0.072,0 0,7.109 0,7.109 0,0 -5.15,-1.275 -7,0.574 -1.85,1.849 -3.833,3.333 -4.462,18.651 z"
       style="fill:#8c8c8c"
       inkscape:connector-curvature="0" /><path
       id="path11"
       d="m 127.225,59.088 -8.198,0 c 0,0 4.786,-17.192 5.203,-25.621 -0.072,0.072 7.11,0 7.11,0 0,0 -0.617,1.9 -0.885,3.559 2.031,-2.249 2.719,-4.272 8.232,-4.272 0.072,0 0,7.109 0,7.109 0,0 -5.15,-1.275 -7,0.574 -1.85,1.849 -3.833,3.333 -4.462,18.651 z"
       style="fill:#8c8c8c"
       inkscape:connector-curvature="0" /><path
       id="path13"
       d="m 117.227,24.633 -6.705,2.325 -1.541,6.244 -4.273,0 0,4.105 3.374,0 c 0,0 -3.598,12.875 -2.924,16.812 0.675,4.273 4.836,5.172 7.31,5.06 2.474,-0.112 3.149,-1.911 3.036,-2.586 -0.113,-0.675 -3.487,0.644 -3.824,-2.393 -0.225,-1.799 2.812,-16.893 2.812,-16.893 l 5.285,0 0,-4.105 -4.161,0 1.611,-8.569 z"
       style="fill:#8c8c8c"
       inkscape:connector-curvature="0" /><path
       id="path15"
       d="m 187.104,58.691 c 0.994,-0.821 0.33,-2.463 -0.53,-2.661 -0.97,-2.011 2.023,-13.763 2.023,-16.98 0,-3.217 -5.397,-9.671 -16.53,-3.599 -1.079,0.686 -0.682,1.808 -0.416,2.183 0.266,0.375 0.766,0.625 1,0.375 1.047,-1.141 5.602,-2.333 7.737,-0.084 1.462,1.35 1.396,3.958 0.383,4.97 -1.236,0.112 -13.427,-0.246 -14.889,7.513 -2.522,13.777 12.92,6.522 13.719,5.96 0.799,-0.562 0.706,1.626 2.003,2.548 3.521,0.307 4.806,0.348 5.5,-0.225 z m -7.708,-5.756 c -1.25,3.292 -5.891,2.789 -6.166,0.459 -1,-7.792 7.041,-7.209 7.041,-7.209 0,0 0.375,3.458 -0.875,6.75 z"
       style="fill:#8c8c8c"
       inkscape:connector-curvature="0" /><path
       id="path17"
       d="m 98.272,40.792 2.332,-3.939 c 0,0 -1.9,-4.045 -7.511,-4.045 -5.611,0 -8.848,4.046 -8.848,8.848 0,4.802 10.682,8.417 8.093,13.164 -4.316,4.424 -8.872,-2.792 -8.782,-3.266 -0.326,0.47 -2.56,3.549 -2.452,3.549 0.54,1.079 2.5,4.5 8.752,4.572 5.179,0.06 8.309,-3.776 8.417,-8.523 0.108,-6.366 -9.172,-9.604 -9.28,-12.517 -0.108,-2.913 6.151,-6.26 9.279,2.157 z"
       style="fill:#8c8c8c"
       inkscape:connector-curvature="0" /><path
       id="path19"
       d="m 86.042,31.416 c -1,-0.938 -1.75,0.313 -4,1.25 -2.25,0.937 -3,0.813 -5.25,0.5 -3.688,-0.813 -10.17,-0.57 -11.875,0.25 -11.386,4.572 -5.281,13.031 -3.422,14.719 -0.016,0 -2.773,1.453 -3.176,3.735 -0.518,2.933 0.831,4.52 0.873,4.561 -3.72,0.193 -6.112,3.934 -5.536,6.997 0.62,3.299 4.553,5.931 10.184,5.953 11.904,0.259 12.521,-7.353 12.521,-7.353 1.629,-9.258 -6.222,-9.685 -11.817,-9.25 -2.025,-1.809 -0.445,-3.496 -0.531,-3.496 18.904,0.446 14.145,-12.162 14.145,-12.162 3.192,-0.777 9.446,-4.204 7.884,-5.704 z m -25.32,26.523 c 7.405,1.336 10.385,-0.362 10.892,3.413 0.219,3.684 -2.908,4.737 -6.545,4.963 -3.637,0.226 -6.287,-1.612 -6.433,-3.975 -0.145,-2.363 1.919,-2.119 2.086,-4.401 z M 72.161,41.835 c -0.684,3.028 -2.782,5.136 -4.687,4.706 -1.905,-0.431 -2.894,-3.234 -2.211,-6.263 0.684,-3.029 2.782,-5.137 4.687,-4.707 1.905,0.431 2.895,3.235 2.211,6.264 z"
       inkscape:connector-curvature="0" /><path
       id="path21"
       d="m 47.141,5.199 c -5.409,0 -13.323,-4.407 -21.036,-4.407 -7.713,0 -12.32,4.407 -13.122,5.008 -0.801,0.601 -1.303,2.904 1.102,2.203 2.405,-0.701 4.407,-0.701 8.214,-0.701 3.807,0 12.922,5.209 22.138,5.209 9.216,0 16.928,-7.111 18.631,-9.616 1.703,-2.505 0.1,-3.306 -1.202,-2.704 -1.303,0.601 -9.716,5.008 -14.725,5.008 z"
       style="fill:#ff3131"
       inkscape:connector-curvature="0" /><path
       id="path23"
       d="m 70.639,18.921 c -5.683,0 -13.997,-4.406 -22.1,-4.406 -8.103,0 -12.944,4.406 -13.786,5.008 -0.842,0.602 -1.369,2.904 1.157,2.203 2.526,-0.701 4.63,-0.701 8.629,-0.701 3.999,0 13.576,5.209 23.257,5.209 9.681,0 17.785,-7.111 19.574,-9.615 1.789,-2.505 0.105,-3.307 -1.263,-2.705 -1.368,0.602 -10.206,5.007 -15.468,5.007 z"
       style="fill:#319831"
       inkscape:connector-curvature="0" /><path
       id="path25"
       d="m 37.936,34.063 c -5.893,0 -14.515,-4.761 -22.918,-4.761 -8.403,0 -13.424,4.761 -14.297,5.41 -0.873,0.649 -1.419,3.137 1.2,2.379 2.62,-0.757 4.802,-0.757 8.949,-0.757 4.147,0 14.079,5.626 24.12,5.626 10.04,0 18.443,-7.681 20.299,-10.386 1.856,-2.705 0.109,-3.57 -1.31,-2.921 -1.419,0.649 -10.586,5.41 -16.043,5.41 z"
       style="fill:#3232cc"
       inkscape:connector-curvature="0" /></g></svg>