<?xml version="1.0" encoding="UTF-8" standalone="no"?>
<!-- Created with Inkscape (http://www.inkscape.org/) -->

<svg
   xmlns:dc="http://purl.org/dc/elements/1.1/"
   xmlns:cc="http://creativecommons.org/ns#"
   xmlns:rdf="http://www.w3.org/1999/02/22-rdf-syntax-ns#"
   xmlns:svg="http://www.w3.org/2000/svg"
   xmlns="http://www.w3.org/2000/svg"
   xmlns:xlink="http://www.w3.org/1999/xlink"
   xmlns:sodipodi="http://sodipodi.sourceforge.net/DTD/sodipodi-0.dtd"
   xmlns:inkscape="http://www.inkscape.org/namespaces/inkscape"
   width="1000"
   height="320"
   id="svg3590"
   version="1.1"
   inkscape:version="0.48.4 r9939"
   sodipodi:docname="pitivi-fundraising.svg">
  <defs
     id="defs3592">
    <radialGradient
       r="22.273863"
       fy="43.282089"
       fx="23.413918"
       cy="43.282089"
       cx="23.413918"
       gradientTransform="matrix(0.976115,0.00123608,-1.888397e-4,0.130952,0.567418,37.76785)"
       gradientUnits="userSpaceOnUse"
       id="radialGradient14828-4"
       xlink:href="#linearGradient5501-9"
       inkscape:collect="always" />
    <linearGradient
       id="linearGradient5501-9"
       inkscape:collect="always">
      <stop
         id="stop5503-6"
         offset="0"
         style="stop-color:#000000;stop-opacity:1;" />
      <stop
         id="stop5505-7"
         offset="1"
         style="stop-color:#000000;stop-opacity:0;" />
    </linearGradient>
    <radialGradient
       gradientUnits="userSpaceOnUse"
       gradientTransform="matrix(0.976115,0.00123608,-1.888397e-4,0.130952,0.567418,37.76785)"
       r="22.273863"
       fy="43.282089"
       fx="23.413918"
       cy="43.282089"
       cx="23.413918"
       id="radialGradient5507-2"
       xlink:href="#linearGradient5501-9"
       inkscape:collect="always" />
    <radialGradient
       r="21.020655"
       fy="38.420067"
       fx="9.7811804"
       cy="38.420067"
       cx="9.7811804"
       gradientTransform="matrix(0.74005,-1.271033e-8,6.801607e-7,0.189525,5.047392,7.702356)"
       gradientUnits="userSpaceOnUse"
       id="radialGradient4771-1"
       xlink:href="#linearGradient4755-0"
       inkscape:collect="always" />
    <linearGradient
       id="linearGradient4755-0"
       inkscape:collect="always">
      <stop
         id="stop4757-1"
         offset="0"
         style="stop-color:#ffffff;stop-opacity:1.0000000" />
      <stop
         id="stop4759-3"
         offset="1"
         style="stop-color:#f9f9f9;stop-opacity:1.0000000" />
    </linearGradient>
    <radialGradient
       gradientUnits="userSpaceOnUse"
       gradientTransform="matrix(1.464342,0.03571614,-0.01852372,0.758963,-4.584824,6.809718)"
       r="20.999186"
       fy="25.999708"
       fx="10.536296"
       cy="25.999708"
       cx="10.536296"
       id="radialGradient4741-7"
       xlink:href="#linearGradient4735-7"
       inkscape:collect="always" />
    <linearGradient
       id="linearGradient4735-7"
       inkscape:collect="always">
      <stop
         id="stop4737-6"
         offset="0"
         style="stop-color:#ffffff;stop-opacity:1.0000000" />
      <stop
         id="stop4739-3"
         offset="1"
         style="stop-color:#e6e6e1;stop-opacity:1.0000000" />
    </linearGradient>
    <linearGradient
       id="linearGradient3383-6">
      <stop
         style="stop-color:#6b97d3;stop-opacity:1;"
         offset="0"
         id="stop3385-4" />
      <stop
         style="stop-color:#00275f;stop-opacity:1;"
         offset="1"
         id="stop3387-3" />
    </linearGradient>
    <linearGradient
       y2="104.81464"
       x2="483.70261"
       y1="148.9644"
       x1="479.21826"
       gradientTransform="matrix(1.8370583,0,0,1.8370583,-503.19314,-120.62782)"
       gradientUnits="userSpaceOnUse"
       id="linearGradient3232"
       xlink:href="#linearGradient3383-6"
       inkscape:collect="always" />
    <linearGradient
       id="linearGradient3234">
      <stop
         style="stop-color:#6b97d3;stop-opacity:1;"
         offset="0"
         id="stop3236" />
      <stop
         style="stop-color:#00275f;stop-opacity:1;"
         offset="1"
         id="stop3238" />
    </linearGradient>
    <radialGradient
       inkscape:collect="always"
       xlink:href="#linearGradient3393"
       id="radialGradient3619"
       gradientUnits="userSpaceOnUse"
       gradientTransform="matrix(2.0106843,8.8241089e-8,-2.462406e-8,0.5610902,-488.16053,-8.86705)"
       cx="483"
       cy="116.5"
       fx="483"
       fy="116.5"
       r="532" />
    <linearGradient
       id="linearGradient3393">
      <stop
         style="stop-color:#ffe86e;stop-opacity:1;"
         offset="0"
         id="stop3395" />
      <stop
         style="stop-color:#ff8d00;stop-opacity:1;"
         offset="1"
         id="stop3397" />
    </linearGradient>
    <radialGradient
       r="532"
       fy="116.5"
       fx="483"
       cy="116.5"
       cx="483"
       gradientTransform="matrix(2.0106843,9.6119735e-8,-2.462406e-8,0.61118739,-478.39005,70.001488)"
       gradientUnits="userSpaceOnUse"
       id="radialGradient3335"
       xlink:href="#linearGradient3393"
       inkscape:collect="always" />
    <linearGradient
       inkscape:collect="always"
       xlink:href="#linearGradient3383-6"
       id="linearGradient3111"
       gradientUnits="userSpaceOnUse"
       gradientTransform="matrix(1.1533086,0,0,1.1533087,-73.850687,-31.901888)"
       x1="479.21826"
       y1="148.9644"
       x2="483.70261"
       y2="104.81464" />
    <linearGradient
       inkscape:collect="always"
       xlink:href="#linearGradient3383-6"
       id="linearGradient3311"
       gradientUnits="userSpaceOnUse"
       gradientTransform="matrix(1.1533086,0,0,1.1533087,-88.996175,-17.392165)"
       x1="479.21826"
       y1="148.9644"
       x2="483.70261"
       y2="104.81464" />
  </defs>
  <sodipodi:namedview
     id="base"
     pagecolor="#ffffff"
     bordercolor="#666666"
     borderopacity="1.0"
     inkscape:pageopacity="0.0"
     inkscape:pageshadow="2"
     inkscape:zoom="1.4"
     inkscape:cx="674.02368"
     inkscape:cy="176.07747"
     inkscape:document-units="px"
     inkscape:current-layer="svg3590"
     showgrid="false"
     inkscape:window-width="1920"
     inkscape:window-height="1014"
     inkscape:window-x="0"
     inkscape:window-y="27"
     inkscape:window-maximized="1" />
  <metadata
     id="metadata3595">
    <rdf:RDF>
      <cc:Work
         rdf:about="">
        <dc:format>image/svg+xml</dc:format>
        <dc:type
           rdf:resource="http://purl.org/dc/dcmitype/StillImage" />
        <dc:title />
      </cc:Work>
    </rdf:RDF>
  </metadata>
  <g
     inkscape:label="Layer 1"
     inkscape:groupmode="layer"
     id="layer1" />
  <path
     style="fill:url(#radialGradient3335);fill-opacity:1;fill-rule:nonzero;stroke:none;stroke-width:1px;marker:none;visibility:visible;display:inline;overflow:visible;enable-background:accumulate"
     d="m -39.229519,-8.5718857 1064.000019,0 0,321.3392157 -34.00002,0 c -88.66667,0 -314.44622,27.04787 -471.99999,27.23214 -164.2115,0.19205 -403.33334,-27.23214 -492.000009,-27.23214 l -66,0 z"
     id="rect3391"
     sodipodi:nodetypes="cccsascc"
     inkscape:connector-curvature="0" />
  <g
     style="display:inline"
     inkscape:label="Layer 1"
     id="g2502"
     transform="matrix(2.5611303,0,0,2.789802,234.70455,58.05231)">
    <path
       transform="matrix(0.538748,0,0,0.857097,22.76191,8.222984)"
       d="m 46.845823,43.492195 c 0,1.610913 -9.972348,2.916816 -22.273863,2.916816 -12.301514,0 -22.2738624,-1.305903 -22.2738624,-2.916816 0,-1.610913 9.9723484,-2.916815 22.2738624,-2.916815 12.301515,0 22.273863,1.305902 22.273863,2.916815 z"
       sodipodi:ry="2.9168155"
       sodipodi:rx="22.273863"
       sodipodi:cy="43.492195"
       sodipodi:cx="24.57196"
       id="path14826"
       style="opacity:0.2;fill:url(#radialGradient14828-4);fill-opacity:1;stroke:none"
       sodipodi:type="arc" />
    <path
       transform="matrix(1.077496,0,0,1.272729,-2.47619,-11.0661)"
       d="m 46.845823,43.492195 c 0,1.610913 -9.972348,2.916816 -22.273863,2.916816 -12.301514,0 -22.2738624,-1.305903 -22.2738624,-2.916816 0,-1.610913 9.9723484,-2.916815 22.2738624,-2.916815 12.301515,0 22.273863,1.305902 22.273863,2.916815 z"
       sodipodi:ry="2.9168155"
       sodipodi:rx="22.273863"
       sodipodi:cy="43.492195"
       sodipodi:cx="24.57196"
       id="path4773"
       style="opacity:0.2;fill:url(#radialGradient5507-2);fill-opacity:1;stroke:none"
       sodipodi:type="arc" />
    <g
       transform="matrix(0.965926,0.258819,-0.258819,0.965926,3.886389,-10.47017)"
       id="g4763">
      <rect
         style="fill:url(#radialGradient4771-1);fill-opacity:1;stroke:#666863;stroke-width:1.00000083;stroke-linecap:round;stroke-linejoin:round;stroke-miterlimit:4;stroke-opacity:1;stroke-dasharray:none;stroke-dashoffset:0"
         id="rect1316"
         width="41.041309"
         height="6.9678578"
         x="3.5000005"
         y="11.5"
         rx="0"
         ry="0" />
      <path
         style="fill:#ad1919;fill-opacity:1;fill-rule:evenodd;stroke:none"
         d="m 8,12 -4,6 5,0 4,-6 -5,0 z"
         id="path1320"
         inkscape:connector-curvature="0" />
      <path
         style="fill:#5fa41e;fill-opacity:1;fill-rule:evenodd;stroke:none"
         d="m 18,12 -4,6 5,0 4,-6 -5,0 z"
         id="path2051"
         inkscape:connector-curvature="0" />
      <path
         style="fill:#365c93;fill-opacity:1;fill-rule:evenodd;stroke:none"
         d="m 28,12 -4,6 5,0 4,-6 -5,0 z"
         id="path2055"
         inkscape:connector-curvature="0" />
      <path
         style="fill:#555753;fill-opacity:1;fill-rule:evenodd;stroke:none"
         d="m 38,12 -4,6 5,0 4,-6 -5,0 z"
         id="path2059"
         inkscape:connector-curvature="0" />
      <rect
         style="opacity:0.5;fill:none;stroke:#ffffff;stroke-width:1;stroke-linecap:round;stroke-linejoin:miter;stroke-miterlimit:4;stroke-opacity:1;stroke-dasharray:none;stroke-dashoffset:0"
         id="rect2067"
         width="38.99189"
         height="5.1172376"
         x="4.4951787"
         y="12.423516"
         rx="0"
         ry="0" />
    </g>
    <path
       sodipodi:nodetypes="ccccccccc"
       id="path2063"
       d="m 2.4881176,19.543848 0,23 c 0.029811,1.071428 1.1328072,2.142857 2.0211665,1.928571 l 36.8102699,0 c 1.079148,-0.07143 2.229841,-1 2.164258,-1.928571 l 0,-28.928571 -10.96132,0 0,5.928571 -30.0343744,0 z"
       style="fill:url(#radialGradient4741-7);fill-opacity:1;fill-rule:evenodd;stroke:#767872;stroke-width:1.00000012px;stroke-linecap:butt;stroke-linejoin:miter;stroke-opacity:1"
       inkscape:connector-curvature="0" />
    <path
       transform="matrix(0.843082,0,0,0.815886,6.920598,9.752308)"
       d="m 41.593404,39.578522 c 0,0.676914 -0.531046,1.225661 -1.186124,1.225661 -0.655078,0 -1.186124,-0.548747 -1.186124,-1.225661 0,-0.676914 0.531046,-1.225661 1.186124,-1.225661 0.655078,0 1.186124,0.548747 1.186124,1.225661 z"
       sodipodi:ry="1.2256612"
       sodipodi:rx="1.1861236"
       sodipodi:cy="39.578522"
       sodipodi:cx="40.40728"
       id="path4481"
       style="opacity:0.2;fill:#555753;fill-opacity:1;stroke:none"
       sodipodi:type="arc" />
    <path
       transform="matrix(0.843082,0,0,0.815886,6.920599,6.752308)"
       d="m 41.593404,39.578522 c 0,0.676914 -0.531046,1.225661 -1.186124,1.225661 -0.655078,0 -1.186124,-0.548747 -1.186124,-1.225661 0,-0.676914 0.531046,-1.225661 1.186124,-1.225661 0.655078,0 1.186124,0.548747 1.186124,1.225661 z"
       sodipodi:ry="1.2256612"
       sodipodi:rx="1.1861236"
       sodipodi:cy="39.578522"
       sodipodi:cx="40.40728"
       id="path4509"
       style="opacity:0.2;fill:#555753;fill-opacity:1;stroke:none"
       sodipodi:type="arc" />
    <path
       transform="matrix(0.843082,0,0,0.815886,6.920604,3.75231)"
       d="m 41.593404,39.578522 c 0,0.676914 -0.531046,1.225661 -1.186124,1.225661 -0.655078,0 -1.186124,-0.548747 -1.186124,-1.225661 0,-0.676914 0.531046,-1.225661 1.186124,-1.225661 0.655078,0 1.186124,0.548747 1.186124,1.225661 z"
       sodipodi:ry="1.2256612"
       sodipodi:rx="1.1861236"
       sodipodi:cy="39.578522"
       sodipodi:cx="40.40728"
       id="path4527"
       style="opacity:0.2;fill:#555753;fill-opacity:1;stroke:none"
       sodipodi:type="arc" />
    <path
       transform="matrix(0.843082,0,0,0.815886,6.920605,0.752308)"
       d="m 41.593404,39.578522 c 0,0.676914 -0.531046,1.225661 -1.186124,1.225661 -0.655078,0 -1.186124,-0.548747 -1.186124,-1.225661 0,-0.676914 0.531046,-1.225661 1.186124,-1.225661 0.655078,0 1.186124,0.548747 1.186124,1.225661 z"
       sodipodi:ry="1.2256612"
       sodipodi:rx="1.1861236"
       sodipodi:cy="39.578522"
       sodipodi:cx="40.40728"
       id="path4545"
       style="opacity:0.2;fill:#555753;fill-opacity:1;stroke:none"
       sodipodi:type="arc" />
    <path
       transform="matrix(0.843082,0,0,0.815886,6.920593,-2.247692)"
       d="m 41.593404,39.578522 c 0,0.676914 -0.531046,1.225661 -1.186124,1.225661 -0.655078,0 -1.186124,-0.548747 -1.186124,-1.225661 0,-0.676914 0.531046,-1.225661 1.186124,-1.225661 0.655078,0 1.186124,0.548747 1.186124,1.225661 z"
       sodipodi:ry="1.2256612"
       sodipodi:rx="1.1861236"
       sodipodi:cy="39.578522"
       sodipodi:cx="40.40728"
       id="path4555"
       style="opacity:0.2;fill:#555753;fill-opacity:1;stroke:none"
       sodipodi:type="arc" />
    <path
       transform="matrix(0.843082,0,0,0.815886,3.920611,9.752308)"
       d="m 41.593404,39.578522 c 0,0.676914 -0.531046,1.225661 -1.186124,1.225661 -0.655078,0 -1.186124,-0.548747 -1.186124,-1.225661 0,-0.676914 0.531046,-1.225661 1.186124,-1.225661 0.655078,0 1.186124,0.548747 1.186124,1.225661 z"
       sodipodi:ry="1.2256612"
       sodipodi:rx="1.1861236"
       sodipodi:cy="39.578522"
       sodipodi:cx="40.40728"
       id="path4569"
       style="opacity:0.2;fill:#555753;fill-opacity:1;stroke:none"
       sodipodi:type="arc" />
    <path
       transform="matrix(0.843082,0,0,0.815886,3.920612,6.752306)"
       d="m 41.593404,39.578522 c 0,0.676914 -0.531046,1.225661 -1.186124,1.225661 -0.655078,0 -1.186124,-0.548747 -1.186124,-1.225661 0,-0.676914 0.531046,-1.225661 1.186124,-1.225661 0.655078,0 1.186124,0.548747 1.186124,1.225661 z"
       sodipodi:ry="1.2256612"
       sodipodi:rx="1.1861236"
       sodipodi:cy="39.578522"
       sodipodi:cx="40.40728"
       id="path4571"
       style="opacity:0.2;fill:#555753;fill-opacity:1;stroke:none"
       sodipodi:type="arc" />
    <path
       transform="matrix(0.843082,0,0,0.815886,3.920617,3.752316)"
       d="m 41.593404,39.578522 c 0,0.676914 -0.531046,1.225661 -1.186124,1.225661 -0.655078,0 -1.186124,-0.548747 -1.186124,-1.225661 0,-0.676914 0.531046,-1.225661 1.186124,-1.225661 0.655078,0 1.186124,0.548747 1.186124,1.225661 z"
       sodipodi:ry="1.2256612"
       sodipodi:rx="1.1861236"
       sodipodi:cy="39.578522"
       sodipodi:cx="40.40728"
       id="path4573"
       style="opacity:0.2;fill:#555753;fill-opacity:1;stroke:none"
       sodipodi:type="arc" />
    <path
       transform="matrix(0.843082,0,0,0.815886,3.920618,0.752306)"
       d="m 41.593404,39.578522 c 0,0.676914 -0.531046,1.225661 -1.186124,1.225661 -0.655078,0 -1.186124,-0.548747 -1.186124,-1.225661 0,-0.676914 0.531046,-1.225661 1.186124,-1.225661 0.655078,0 1.186124,0.548747 1.186124,1.225661 z"
       sodipodi:ry="1.2256612"
       sodipodi:rx="1.1861236"
       sodipodi:cy="39.578522"
       sodipodi:cx="40.40728"
       id="path4575"
       style="opacity:0.2;fill:#555753;fill-opacity:1;stroke:none"
       sodipodi:type="arc" />
    <path
       transform="matrix(0.843082,0,0,0.815886,3.920606,-2.247694)"
       d="m 41.593404,39.578522 c 0,0.676914 -0.531046,1.225661 -1.186124,1.225661 -0.655078,0 -1.186124,-0.548747 -1.186124,-1.225661 0,-0.676914 0.531046,-1.225661 1.186124,-1.225661 0.655078,0 1.186124,0.548747 1.186124,1.225661 z"
       sodipodi:ry="1.2256612"
       sodipodi:rx="1.1861236"
       sodipodi:cy="39.578522"
       sodipodi:cx="40.40728"
       id="path4577"
       style="opacity:0.2;fill:#555753;fill-opacity:1;stroke:none"
       sodipodi:type="arc" />
    <path
       transform="matrix(0.843082,0,0,0.815886,3.920607,-5.247692)"
       d="m 41.593404,39.578522 c 0,0.676914 -0.531046,1.225661 -1.186124,1.225661 -0.655078,0 -1.186124,-0.548747 -1.186124,-1.225661 0,-0.676914 0.531046,-1.225661 1.186124,-1.225661 0.655078,0 1.186124,0.548747 1.186124,1.225661 z"
       sodipodi:ry="1.2256612"
       sodipodi:rx="1.1861236"
       sodipodi:cy="39.578522"
       sodipodi:cx="40.40728"
       id="path4579"
       style="opacity:0.2;fill:#555753;fill-opacity:1;stroke:none"
       sodipodi:type="arc" />
    <path
       transform="matrix(0.843082,0,0,0.815886,0.920585,9.752298)"
       d="m 41.593404,39.578522 c 0,0.676914 -0.531046,1.225661 -1.186124,1.225661 -0.655078,0 -1.186124,-0.548747 -1.186124,-1.225661 0,-0.676914 0.531046,-1.225661 1.186124,-1.225661 0.655078,0 1.186124,0.548747 1.186124,1.225661 z"
       sodipodi:ry="1.2256612"
       sodipodi:rx="1.1861236"
       sodipodi:cy="39.578522"
       sodipodi:cx="40.40728"
       id="path4581"
       style="opacity:0.2;fill:#555753;fill-opacity:1;stroke:none"
       sodipodi:type="arc" />
    <path
       transform="matrix(0.843082,0,0,0.815886,0.920586,6.752298)"
       d="m 41.593404,39.578522 c 0,0.676914 -0.531046,1.225661 -1.186124,1.225661 -0.655078,0 -1.186124,-0.548747 -1.186124,-1.225661 0,-0.676914 0.531046,-1.225661 1.186124,-1.225661 0.655078,0 1.186124,0.548747 1.186124,1.225661 z"
       sodipodi:ry="1.2256612"
       sodipodi:rx="1.1861236"
       sodipodi:cy="39.578522"
       sodipodi:cx="40.40728"
       id="path4583"
       style="opacity:0.2;fill:#555753;fill-opacity:1;stroke:none"
       sodipodi:type="arc" />
    <path
       transform="matrix(0.843082,0,0,0.815886,0.920591,3.7523)"
       d="m 41.593404,39.578522 c 0,0.676914 -0.531046,1.225661 -1.186124,1.225661 -0.655078,0 -1.186124,-0.548747 -1.186124,-1.225661 0,-0.676914 0.531046,-1.225661 1.186124,-1.225661 0.655078,0 1.186124,0.548747 1.186124,1.225661 z"
       sodipodi:ry="1.2256612"
       sodipodi:rx="1.1861236"
       sodipodi:cy="39.578522"
       sodipodi:cx="40.40728"
       id="path4585"
       style="opacity:0.2;fill:#555753;fill-opacity:1;stroke:none"
       sodipodi:type="arc" />
    <path
       transform="matrix(0.843082,0,0,0.815886,0.920592,0.752298)"
       d="m 41.593404,39.578522 c 0,0.676914 -0.531046,1.225661 -1.186124,1.225661 -0.655078,0 -1.186124,-0.548747 -1.186124,-1.225661 0,-0.676914 0.531046,-1.225661 1.186124,-1.225661 0.655078,0 1.186124,0.548747 1.186124,1.225661 z"
       sodipodi:ry="1.2256612"
       sodipodi:rx="1.1861236"
       sodipodi:cy="39.578522"
       sodipodi:cx="40.40728"
       id="path4587"
       style="opacity:0.2;fill:#555753;fill-opacity:1;stroke:none"
       sodipodi:type="arc" />
    <path
       transform="matrix(0.843082,0,0,0.815886,0.92058,-2.247702)"
       d="m 41.593404,39.578522 c 0,0.676914 -0.531046,1.225661 -1.186124,1.225661 -0.655078,0 -1.186124,-0.548747 -1.186124,-1.225661 0,-0.676914 0.531046,-1.225661 1.186124,-1.225661 0.655078,0 1.186124,0.548747 1.186124,1.225661 z"
       sodipodi:ry="1.2256612"
       sodipodi:rx="1.1861236"
       sodipodi:cy="39.578522"
       sodipodi:cx="40.40728"
       id="path4589"
       style="opacity:0.2;fill:#555753;fill-opacity:1;stroke:none"
       sodipodi:type="arc" />
    <path
       transform="matrix(0.843082,0,0,0.815886,0.920581,-5.247704)"
       d="m 41.593404,39.578522 c 0,0.676914 -0.531046,1.225661 -1.186124,1.225661 -0.655078,0 -1.186124,-0.548747 -1.186124,-1.225661 0,-0.676914 0.531046,-1.225661 1.186124,-1.225661 0.655078,0 1.186124,0.548747 1.186124,1.225661 z"
       sodipodi:ry="1.2256612"
       sodipodi:rx="1.1861236"
       sodipodi:cy="39.578522"
       sodipodi:cx="40.40728"
       id="path4591"
       style="opacity:0.2;fill:#555753;fill-opacity:1;stroke:none"
       sodipodi:type="arc" />
    <path
       transform="matrix(0.843082,0,0,0.815886,-2.079402,9.752298)"
       d="m 41.593404,39.578522 c 0,0.676914 -0.531046,1.225661 -1.186124,1.225661 -0.655078,0 -1.186124,-0.548747 -1.186124,-1.225661 0,-0.676914 0.531046,-1.225661 1.186124,-1.225661 0.655078,0 1.186124,0.548747 1.186124,1.225661 z"
       sodipodi:ry="1.2256612"
       sodipodi:rx="1.1861236"
       sodipodi:cy="39.578522"
       sodipodi:cx="40.40728"
       id="path4593"
       style="opacity:0.2;fill:#555753;fill-opacity:1;stroke:none"
       sodipodi:type="arc" />
    <path
       transform="matrix(0.843082,0,0,0.815886,-2.079401,6.752298)"
       d="m 41.593404,39.578522 c 0,0.676914 -0.531046,1.225661 -1.186124,1.225661 -0.655078,0 -1.186124,-0.548747 -1.186124,-1.225661 0,-0.676914 0.531046,-1.225661 1.186124,-1.225661 0.655078,0 1.186124,0.548747 1.186124,1.225661 z"
       sodipodi:ry="1.2256612"
       sodipodi:rx="1.1861236"
       sodipodi:cy="39.578522"
       sodipodi:cx="40.40728"
       id="path4595"
       style="opacity:0.2;fill:#555753;fill-opacity:1;stroke:none"
       sodipodi:type="arc" />
    <path
       transform="matrix(0.843082,0,0,0.815886,-2.079396,3.752306)"
       d="m 41.593404,39.578522 c 0,0.676914 -0.531046,1.225661 -1.186124,1.225661 -0.655078,0 -1.186124,-0.548747 -1.186124,-1.225661 0,-0.676914 0.531046,-1.225661 1.186124,-1.225661 0.655078,0 1.186124,0.548747 1.186124,1.225661 z"
       sodipodi:ry="1.2256612"
       sodipodi:rx="1.1861236"
       sodipodi:cy="39.578522"
       sodipodi:cx="40.40728"
       id="path4597"
       style="opacity:0.2;fill:#555753;fill-opacity:1;stroke:none"
       sodipodi:type="arc" />
    <path
       transform="matrix(0.843082,0,0,0.815886,-2.079395,0.752296)"
       d="m 41.593404,39.578522 c 0,0.676914 -0.531046,1.225661 -1.186124,1.225661 -0.655078,0 -1.186124,-0.548747 -1.186124,-1.225661 0,-0.676914 0.531046,-1.225661 1.186124,-1.225661 0.655078,0 1.186124,0.548747 1.186124,1.225661 z"
       sodipodi:ry="1.2256612"
       sodipodi:rx="1.1861236"
       sodipodi:cy="39.578522"
       sodipodi:cx="40.40728"
       id="path4599"
       style="opacity:0.2;fill:#555753;fill-opacity:1;stroke:none"
       sodipodi:type="arc" />
    <path
       transform="matrix(0.843082,0,0,0.815886,-2.079407,-2.247704)"
       d="m 41.593404,39.578522 c 0,0.676914 -0.531046,1.225661 -1.186124,1.225661 -0.655078,0 -1.186124,-0.548747 -1.186124,-1.225661 0,-0.676914 0.531046,-1.225661 1.186124,-1.225661 0.655078,0 1.186124,0.548747 1.186124,1.225661 z"
       sodipodi:ry="1.2256612"
       sodipodi:rx="1.1861236"
       sodipodi:cy="39.578522"
       sodipodi:cx="40.40728"
       id="path4601"
       style="opacity:0.2;fill:#555753;fill-opacity:1;stroke:none"
       sodipodi:type="arc" />
    <path
       transform="matrix(0.843082,0,0,0.815886,-2.079406,-5.247702)"
       d="m 41.593404,39.578522 c 0,0.676914 -0.531046,1.225661 -1.186124,1.225661 -0.655078,0 -1.186124,-0.548747 -1.186124,-1.225661 0,-0.676914 0.531046,-1.225661 1.186124,-1.225661 0.655078,0 1.186124,0.548747 1.186124,1.225661 z"
       sodipodi:ry="1.2256612"
       sodipodi:rx="1.1861236"
       sodipodi:cy="39.578522"
       sodipodi:cx="40.40728"
       id="path4603"
       style="opacity:0.2;fill:#555753;fill-opacity:1;stroke:none"
       sodipodi:type="arc" />
    <path
       transform="matrix(0.843082,0,0,0.815886,-5.079378,9.752298)"
       d="m 41.593404,39.578522 c 0,0.676914 -0.531046,1.225661 -1.186124,1.225661 -0.655078,0 -1.186124,-0.548747 -1.186124,-1.225661 0,-0.676914 0.531046,-1.225661 1.186124,-1.225661 0.655078,0 1.186124,0.548747 1.186124,1.225661 z"
       sodipodi:ry="1.2256612"
       sodipodi:rx="1.1861236"
       sodipodi:cy="39.578522"
       sodipodi:cx="40.40728"
       id="path4605"
       style="opacity:0.2;fill:#555753;fill-opacity:1;stroke:none"
       sodipodi:type="arc" />
    <path
       transform="matrix(0.843082,0,0,0.815886,-5.079378,6.752298)"
       d="m 41.593404,39.578522 c 0,0.676914 -0.531046,1.225661 -1.186124,1.225661 -0.655078,0 -1.186124,-0.548747 -1.186124,-1.225661 0,-0.676914 0.531046,-1.225661 1.186124,-1.225661 0.655078,0 1.186124,0.548747 1.186124,1.225661 z"
       sodipodi:ry="1.2256612"
       sodipodi:rx="1.1861236"
       sodipodi:cy="39.578522"
       sodipodi:cx="40.40728"
       id="path4607"
       style="opacity:0.2;fill:#555753;fill-opacity:1;stroke:none"
       sodipodi:type="arc" />
    <path
       transform="matrix(0.843082,0,0,0.815886,-5.079368,3.7523)"
       d="m 41.593404,39.578522 c 0,0.676914 -0.531046,1.225661 -1.186124,1.225661 -0.655078,0 -1.186124,-0.548747 -1.186124,-1.225661 0,-0.676914 0.531046,-1.225661 1.186124,-1.225661 0.655078,0 1.186124,0.548747 1.186124,1.225661 z"
       sodipodi:ry="1.2256612"
       sodipodi:rx="1.1861236"
       sodipodi:cy="39.578522"
       sodipodi:cx="40.40728"
       id="path4609"
       style="opacity:0.2;fill:#555753;fill-opacity:1;stroke:none"
       sodipodi:type="arc" />
    <path
       transform="matrix(0.843082,0,0,0.815886,-5.079368,0.752298)"
       d="m 41.593404,39.578522 c 0,0.676914 -0.531046,1.225661 -1.186124,1.225661 -0.655078,0 -1.186124,-0.548747 -1.186124,-1.225661 0,-0.676914 0.531046,-1.225661 1.186124,-1.225661 0.655078,0 1.186124,0.548747 1.186124,1.225661 z"
       sodipodi:ry="1.2256612"
       sodipodi:rx="1.1861236"
       sodipodi:cy="39.578522"
       sodipodi:cx="40.40728"
       id="path4611"
       style="opacity:0.2;fill:#555753;fill-opacity:1;stroke:none"
       sodipodi:type="arc" />
    <path
       transform="matrix(0.843082,0,0,0.815886,-5.079378,-2.247702)"
       d="m 41.593404,39.578522 c 0,0.676914 -0.531046,1.225661 -1.186124,1.225661 -0.655078,0 -1.186124,-0.548747 -1.186124,-1.225661 0,-0.676914 0.531046,-1.225661 1.186124,-1.225661 0.655078,0 1.186124,0.548747 1.186124,1.225661 z"
       sodipodi:ry="1.2256612"
       sodipodi:rx="1.1861236"
       sodipodi:cy="39.578522"
       sodipodi:cx="40.40728"
       id="path4613"
       style="opacity:0.2;fill:#555753;fill-opacity:1;stroke:none"
       sodipodi:type="arc" />
    <path
       transform="matrix(0.843082,0,0,0.815886,-8.079363,9.752298)"
       d="m 41.593404,39.578522 c 0,0.676914 -0.531046,1.225661 -1.186124,1.225661 -0.655078,0 -1.186124,-0.548747 -1.186124,-1.225661 0,-0.676914 0.531046,-1.225661 1.186124,-1.225661 0.655078,0 1.186124,0.548747 1.186124,1.225661 z"
       sodipodi:ry="1.2256612"
       sodipodi:rx="1.1861236"
       sodipodi:cy="39.578522"
       sodipodi:cx="40.40728"
       id="path4617"
       style="opacity:0.2;fill:#555753;fill-opacity:1;stroke:none"
       sodipodi:type="arc" />
    <path
       transform="matrix(0.843082,0,0,0.815886,-8.079362,6.752296)"
       d="m 41.593404,39.578522 c 0,0.676914 -0.531046,1.225661 -1.186124,1.225661 -0.655078,0 -1.186124,-0.548747 -1.186124,-1.225661 0,-0.676914 0.531046,-1.225661 1.186124,-1.225661 0.655078,0 1.186124,0.548747 1.186124,1.225661 z"
       sodipodi:ry="1.2256612"
       sodipodi:rx="1.1861236"
       sodipodi:cy="39.578522"
       sodipodi:cx="40.40728"
       id="path4619"
       style="opacity:0.2;fill:#555753;fill-opacity:1;stroke:none"
       sodipodi:type="arc" />
    <path
       transform="matrix(0.843082,0,0,0.815886,-8.079357,3.752306)"
       d="m 41.593404,39.578522 c 0,0.676914 -0.531046,1.225661 -1.186124,1.225661 -0.655078,0 -1.186124,-0.548747 -1.186124,-1.225661 0,-0.676914 0.531046,-1.225661 1.186124,-1.225661 0.655078,0 1.186124,0.548747 1.186124,1.225661 z"
       sodipodi:ry="1.2256612"
       sodipodi:rx="1.1861236"
       sodipodi:cy="39.578522"
       sodipodi:cx="40.40728"
       id="path4621"
       style="opacity:0.2;fill:#555753;fill-opacity:1;stroke:none"
       sodipodi:type="arc" />
    <path
       transform="matrix(0.843082,0,0,0.815886,-8.079356,0.752296)"
       d="m 41.593404,39.578522 c 0,0.676914 -0.531046,1.225661 -1.186124,1.225661 -0.655078,0 -1.186124,-0.548747 -1.186124,-1.225661 0,-0.676914 0.531046,-1.225661 1.186124,-1.225661 0.655078,0 1.186124,0.548747 1.186124,1.225661 z"
       sodipodi:ry="1.2256612"
       sodipodi:rx="1.1861236"
       sodipodi:cy="39.578522"
       sodipodi:cx="40.40728"
       id="path4623"
       style="opacity:0.2;fill:#555753;fill-opacity:1;stroke:none"
       sodipodi:type="arc" />
    <path
       transform="matrix(0.843082,0,0,0.815886,-8.079368,-2.247704)"
       d="m 41.593404,39.578522 c 0,0.676914 -0.531046,1.225661 -1.186124,1.225661 -0.655078,0 -1.186124,-0.548747 -1.186124,-1.225661 0,-0.676914 0.531046,-1.225661 1.186124,-1.225661 0.655078,0 1.186124,0.548747 1.186124,1.225661 z"
       sodipodi:ry="1.2256612"
       sodipodi:rx="1.1861236"
       sodipodi:cy="39.578522"
       sodipodi:cx="40.40728"
       id="path4625"
       style="opacity:0.2;fill:#555753;fill-opacity:1;stroke:none"
       sodipodi:type="arc" />
    <path
       transform="matrix(0.843082,0,0,0.815886,-11.07939,9.752288)"
       d="m 41.593404,39.578522 c 0,0.676914 -0.531046,1.225661 -1.186124,1.225661 -0.655078,0 -1.186124,-0.548747 -1.186124,-1.225661 0,-0.676914 0.531046,-1.225661 1.186124,-1.225661 0.655078,0 1.186124,0.548747 1.186124,1.225661 z"
       sodipodi:ry="1.2256612"
       sodipodi:rx="1.1861236"
       sodipodi:cy="39.578522"
       sodipodi:cx="40.40728"
       id="path4629"
       style="opacity:0.2;fill:#555753;fill-opacity:1;stroke:none"
       sodipodi:type="arc" />
    <path
       transform="matrix(0.843082,0,0,0.815886,-11.07938,6.752288)"
       d="m 41.593404,39.578522 c 0,0.676914 -0.531046,1.225661 -1.186124,1.225661 -0.655078,0 -1.186124,-0.548747 -1.186124,-1.225661 0,-0.676914 0.531046,-1.225661 1.186124,-1.225661 0.655078,0 1.186124,0.548747 1.186124,1.225661 z"
       sodipodi:ry="1.2256612"
       sodipodi:rx="1.1861236"
       sodipodi:cy="39.578522"
       sodipodi:cx="40.40728"
       id="path4631"
       style="opacity:0.2;fill:#555753;fill-opacity:1;stroke:none"
       sodipodi:type="arc" />
    <path
       transform="matrix(0.843082,0,0,0.815886,-11.07938,3.75229)"
       d="m 41.593404,39.578522 c 0,0.676914 -0.531046,1.225661 -1.186124,1.225661 -0.655078,0 -1.186124,-0.548747 -1.186124,-1.225661 0,-0.676914 0.531046,-1.225661 1.186124,-1.225661 0.655078,0 1.186124,0.548747 1.186124,1.225661 z"
       sodipodi:ry="1.2256612"
       sodipodi:rx="1.1861236"
       sodipodi:cy="39.578522"
       sodipodi:cx="40.40728"
       id="path4633"
       style="opacity:0.2;fill:#555753;fill-opacity:1;stroke:none"
       sodipodi:type="arc" />
    <path
       transform="matrix(0.843082,0,0,0.815886,-11.07938,0.752288)"
       d="m 41.593404,39.578522 c 0,0.676914 -0.531046,1.225661 -1.186124,1.225661 -0.655078,0 -1.186124,-0.548747 -1.186124,-1.225661 0,-0.676914 0.531046,-1.225661 1.186124,-1.225661 0.655078,0 1.186124,0.548747 1.186124,1.225661 z"
       sodipodi:ry="1.2256612"
       sodipodi:rx="1.1861236"
       sodipodi:cy="39.578522"
       sodipodi:cx="40.40728"
       id="path4635"
       style="opacity:0.2;fill:#555753;fill-opacity:1;stroke:none"
       sodipodi:type="arc" />
    <path
       transform="matrix(0.843082,0,0,0.815886,-11.07939,-2.247712)"
       d="m 41.593404,39.578522 c 0,0.676914 -0.531046,1.225661 -1.186124,1.225661 -0.655078,0 -1.186124,-0.548747 -1.186124,-1.225661 0,-0.676914 0.531046,-1.225661 1.186124,-1.225661 0.655078,0 1.186124,0.548747 1.186124,1.225661 z"
       sodipodi:ry="1.2256612"
       sodipodi:rx="1.1861236"
       sodipodi:cy="39.578522"
       sodipodi:cx="40.40728"
       id="path4637"
       style="opacity:0.2;fill:#555753;fill-opacity:1;stroke:none"
       sodipodi:type="arc" />
    <path
       transform="matrix(0.843082,0,0,0.815886,-14.07937,9.752288)"
       d="m 41.593404,39.578522 c 0,0.676914 -0.531046,1.225661 -1.186124,1.225661 -0.655078,0 -1.186124,-0.548747 -1.186124,-1.225661 0,-0.676914 0.531046,-1.225661 1.186124,-1.225661 0.655078,0 1.186124,0.548747 1.186124,1.225661 z"
       sodipodi:ry="1.2256612"
       sodipodi:rx="1.1861236"
       sodipodi:cy="39.578522"
       sodipodi:cx="40.40728"
       id="path4641"
       style="opacity:0.2;fill:#555753;fill-opacity:1;stroke:none"
       sodipodi:type="arc" />
    <path
       transform="matrix(0.843082,0,0,0.815886,-14.07937,6.752288)"
       d="m 41.593404,39.578522 c 0,0.676914 -0.531046,1.225661 -1.186124,1.225661 -0.655078,0 -1.186124,-0.548747 -1.186124,-1.225661 0,-0.676914 0.531046,-1.225661 1.186124,-1.225661 0.655078,0 1.186124,0.548747 1.186124,1.225661 z"
       sodipodi:ry="1.2256612"
       sodipodi:rx="1.1861236"
       sodipodi:cy="39.578522"
       sodipodi:cx="40.40728"
       id="path4643"
       style="opacity:0.2;fill:#555753;fill-opacity:1;stroke:none"
       sodipodi:type="arc" />
    <path
       transform="matrix(0.843082,0,0,0.815886,-14.07937,3.752296)"
       d="m 41.593404,39.578522 c 0,0.676914 -0.531046,1.225661 -1.186124,1.225661 -0.655078,0 -1.186124,-0.548747 -1.186124,-1.225661 0,-0.676914 0.531046,-1.225661 1.186124,-1.225661 0.655078,0 1.186124,0.548747 1.186124,1.225661 z"
       sodipodi:ry="1.2256612"
       sodipodi:rx="1.1861236"
       sodipodi:cy="39.578522"
       sodipodi:cx="40.40728"
       id="path4645"
       style="opacity:0.2;fill:#555753;fill-opacity:1;stroke:none"
       sodipodi:type="arc" />
    <path
       transform="matrix(0.843082,0,0,0.815886,-14.07936,0.752286)"
       d="m 41.593404,39.578522 c 0,0.676914 -0.531046,1.225661 -1.186124,1.225661 -0.655078,0 -1.186124,-0.548747 -1.186124,-1.225661 0,-0.676914 0.531046,-1.225661 1.186124,-1.225661 0.655078,0 1.186124,0.548747 1.186124,1.225661 z"
       sodipodi:ry="1.2256612"
       sodipodi:rx="1.1861236"
       sodipodi:cy="39.578522"
       sodipodi:cx="40.40728"
       id="path4647"
       style="opacity:0.2;fill:#555753;fill-opacity:1;stroke:none"
       sodipodi:type="arc" />
    <path
       transform="matrix(0.843082,0,0,0.815886,-17.07937,9.752298)"
       d="m 41.593404,39.578522 c 0,0.676914 -0.531046,1.225661 -1.186124,1.225661 -0.655078,0 -1.186124,-0.548747 -1.186124,-1.225661 0,-0.676914 0.531046,-1.225661 1.186124,-1.225661 0.655078,0 1.186124,0.548747 1.186124,1.225661 z"
       sodipodi:ry="1.2256612"
       sodipodi:rx="1.1861236"
       sodipodi:cy="39.578522"
       sodipodi:cx="40.40728"
       id="path4653"
       style="opacity:0.2;fill:#555753;fill-opacity:1;stroke:none"
       sodipodi:type="arc" />
    <path
       transform="matrix(0.843082,0,0,0.815886,-17.07937,6.752296)"
       d="m 41.593404,39.578522 c 0,0.676914 -0.531046,1.225661 -1.186124,1.225661 -0.655078,0 -1.186124,-0.548747 -1.186124,-1.225661 0,-0.676914 0.531046,-1.225661 1.186124,-1.225661 0.655078,0 1.186124,0.548747 1.186124,1.225661 z"
       sodipodi:ry="1.2256612"
       sodipodi:rx="1.1861236"
       sodipodi:cy="39.578522"
       sodipodi:cx="40.40728"
       id="path4655"
       style="opacity:0.2;fill:#555753;fill-opacity:1;stroke:none"
       sodipodi:type="arc" />
    <path
       transform="matrix(0.843082,0,0,0.815886,-17.07937,3.752296)"
       d="m 41.593404,39.578522 c 0,0.676914 -0.531046,1.225661 -1.186124,1.225661 -0.655078,0 -1.186124,-0.548747 -1.186124,-1.225661 0,-0.676914 0.531046,-1.225661 1.186124,-1.225661 0.655078,0 1.186124,0.548747 1.186124,1.225661 z"
       sodipodi:ry="1.2256612"
       sodipodi:rx="1.1861236"
       sodipodi:cy="39.578522"
       sodipodi:cx="40.40728"
       id="path4657"
       style="opacity:0.2;fill:#555753;fill-opacity:1;stroke:none"
       sodipodi:type="arc" />
    <path
       transform="matrix(0.843082,0,0,0.815886,-17.07936,0.752296)"
       d="m 41.593404,39.578522 c 0,0.676914 -0.531046,1.225661 -1.186124,1.225661 -0.655078,0 -1.186124,-0.548747 -1.186124,-1.225661 0,-0.676914 0.531046,-1.225661 1.186124,-1.225661 0.655078,0 1.186124,0.548747 1.186124,1.225661 z"
       sodipodi:ry="1.2256612"
       sodipodi:rx="1.1861236"
       sodipodi:cy="39.578522"
       sodipodi:cx="40.40728"
       id="path4659"
       style="opacity:0.2;fill:#555753;fill-opacity:1;stroke:none"
       sodipodi:type="arc" />
    <path
       transform="matrix(0.843082,0,0,0.815886,-20.07936,9.752298)"
       d="m 41.593404,39.578522 c 0,0.676914 -0.531046,1.225661 -1.186124,1.225661 -0.655078,0 -1.186124,-0.548747 -1.186124,-1.225661 0,-0.676914 0.531046,-1.225661 1.186124,-1.225661 0.655078,0 1.186124,0.548747 1.186124,1.225661 z"
       sodipodi:ry="1.2256612"
       sodipodi:rx="1.1861236"
       sodipodi:cy="39.578522"
       sodipodi:cx="40.40728"
       id="path4665"
       style="opacity:0.2;fill:#555753;fill-opacity:1;stroke:none"
       sodipodi:type="arc" />
    <path
       transform="matrix(0.843082,0,0,0.815886,-20.07936,6.752296)"
       d="m 41.593404,39.578522 c 0,0.676914 -0.531046,1.225661 -1.186124,1.225661 -0.655078,0 -1.186124,-0.548747 -1.186124,-1.225661 0,-0.676914 0.531046,-1.225661 1.186124,-1.225661 0.655078,0 1.186124,0.548747 1.186124,1.225661 z"
       sodipodi:ry="1.2256612"
       sodipodi:rx="1.1861236"
       sodipodi:cy="39.578522"
       sodipodi:cx="40.40728"
       id="path4667"
       style="opacity:0.2;fill:#555753;fill-opacity:1;stroke:none"
       sodipodi:type="arc" />
    <path
       transform="matrix(0.843082,0,0,0.815886,-20.07935,3.752306)"
       d="m 41.593404,39.578522 c 0,0.676914 -0.531046,1.225661 -1.186124,1.225661 -0.655078,0 -1.186124,-0.548747 -1.186124,-1.225661 0,-0.676914 0.531046,-1.225661 1.186124,-1.225661 0.655078,0 1.186124,0.548747 1.186124,1.225661 z"
       sodipodi:ry="1.2256612"
       sodipodi:rx="1.1861236"
       sodipodi:cy="39.578522"
       sodipodi:cx="40.40728"
       id="path4669"
       style="opacity:0.2;fill:#555753;fill-opacity:1;stroke:none"
       sodipodi:type="arc" />
    <path
       transform="matrix(0.843082,0,0,0.815886,-23.07938,9.752288)"
       d="m 41.593404,39.578522 c 0,0.676914 -0.531046,1.225661 -1.186124,1.225661 -0.655078,0 -1.186124,-0.548747 -1.186124,-1.225661 0,-0.676914 0.531046,-1.225661 1.186124,-1.225661 0.655078,0 1.186124,0.548747 1.186124,1.225661 z"
       sodipodi:ry="1.2256612"
       sodipodi:rx="1.1861236"
       sodipodi:cy="39.578522"
       sodipodi:cx="40.40728"
       id="path4677"
       style="opacity:0.2;fill:#555753;fill-opacity:1;stroke:none"
       sodipodi:type="arc" />
    <path
       transform="matrix(0.843082,0,0,0.815886,-23.07938,6.752286)"
       d="m 41.593404,39.578522 c 0,0.676914 -0.531046,1.225661 -1.186124,1.225661 -0.655078,0 -1.186124,-0.548747 -1.186124,-1.225661 0,-0.676914 0.531046,-1.225661 1.186124,-1.225661 0.655078,0 1.186124,0.548747 1.186124,1.225661 z"
       sodipodi:ry="1.2256612"
       sodipodi:rx="1.1861236"
       sodipodi:cy="39.578522"
       sodipodi:cx="40.40728"
       id="path4679"
       style="opacity:0.2;fill:#555753;fill-opacity:1;stroke:none"
       sodipodi:type="arc" />
    <path
       transform="matrix(0.843082,0,0,0.815886,-23.07938,3.752286)"
       d="m 41.593404,39.578522 c 0,0.676914 -0.531046,1.225661 -1.186124,1.225661 -0.655078,0 -1.186124,-0.548747 -1.186124,-1.225661 0,-0.676914 0.531046,-1.225661 1.186124,-1.225661 0.655078,0 1.186124,0.548747 1.186124,1.225661 z"
       sodipodi:ry="1.2256612"
       sodipodi:rx="1.1861236"
       sodipodi:cy="39.578522"
       sodipodi:cx="40.40728"
       id="path4681"
       style="opacity:0.2;fill:#555753;fill-opacity:1;stroke:none"
       sodipodi:type="arc" />
    <path
       transform="matrix(0.843082,0,0,0.815886,-26.07937,9.752288)"
       d="m 41.593404,39.578522 c 0,0.676914 -0.531046,1.225661 -1.186124,1.225661 -0.655078,0 -1.186124,-0.548747 -1.186124,-1.225661 0,-0.676914 0.531046,-1.225661 1.186124,-1.225661 0.655078,0 1.186124,0.548747 1.186124,1.225661 z"
       sodipodi:ry="1.2256612"
       sodipodi:rx="1.1861236"
       sodipodi:cy="39.578522"
       sodipodi:cx="40.40728"
       id="path4689"
       style="opacity:0.2;fill:#555753;fill-opacity:1;stroke:none"
       sodipodi:type="arc" />
    <path
       transform="matrix(0.843082,0,0,0.815886,-26.07937,6.752286)"
       d="m 41.593404,39.578522 c 0,0.676914 -0.531046,1.225661 -1.186124,1.225661 -0.655078,0 -1.186124,-0.548747 -1.186124,-1.225661 0,-0.676914 0.531046,-1.225661 1.186124,-1.225661 0.655078,0 1.186124,0.548747 1.186124,1.225661 z"
       sodipodi:ry="1.2256612"
       sodipodi:rx="1.1861236"
       sodipodi:cy="39.578522"
       sodipodi:cx="40.40728"
       id="path4691"
       style="opacity:0.2;fill:#555753;fill-opacity:1;stroke:none"
       sodipodi:type="arc" />
    <path
       transform="matrix(0.843082,0,0,0.815886,-26.07936,3.752296)"
       d="m 41.593404,39.578522 c 0,0.676914 -0.531046,1.225661 -1.186124,1.225661 -0.655078,0 -1.186124,-0.548747 -1.186124,-1.225661 0,-0.676914 0.531046,-1.225661 1.186124,-1.225661 0.655078,0 1.186124,0.548747 1.186124,1.225661 z"
       sodipodi:ry="1.2256612"
       sodipodi:rx="1.1861236"
       sodipodi:cy="39.578522"
       sodipodi:cx="40.40728"
       id="path4693"
       style="opacity:0.2;fill:#555753;fill-opacity:1;stroke:none"
       sodipodi:type="arc" />
    <path
       transform="matrix(0.843082,0,0,0.815886,-29.07938,9.752308)"
       d="m 41.593404,39.578522 c 0,0.676914 -0.531046,1.225661 -1.186124,1.225661 -0.655078,0 -1.186124,-0.548747 -1.186124,-1.225661 0,-0.676914 0.531046,-1.225661 1.186124,-1.225661 0.655078,0 1.186124,0.548747 1.186124,1.225661 z"
       sodipodi:ry="1.2256612"
       sodipodi:rx="1.1861236"
       sodipodi:cy="39.578522"
       sodipodi:cx="40.40728"
       id="path4701"
       style="opacity:0.2;fill:#555753;fill-opacity:1;stroke:none"
       sodipodi:type="arc" />
    <path
       transform="matrix(0.843082,0,0,0.815886,-29.07938,6.752306)"
       d="m 41.593404,39.578522 c 0,0.676914 -0.531046,1.225661 -1.186124,1.225661 -0.655078,0 -1.186124,-0.548747 -1.186124,-1.225661 0,-0.676914 0.531046,-1.225661 1.186124,-1.225661 0.655078,0 1.186124,0.548747 1.186124,1.225661 z"
       sodipodi:ry="1.2256612"
       sodipodi:rx="1.1861236"
       sodipodi:cy="39.578522"
       sodipodi:cx="40.40728"
       id="path4703"
       style="opacity:0.2;fill:#555753;fill-opacity:1;stroke:none"
       sodipodi:type="arc" />
    <path
       transform="matrix(0.843082,0,0,0.815886,-29.07938,3.752306)"
       d="m 41.593404,39.578522 c 0,0.676914 -0.531046,1.225661 -1.186124,1.225661 -0.655078,0 -1.186124,-0.548747 -1.186124,-1.225661 0,-0.676914 0.531046,-1.225661 1.186124,-1.225661 0.655078,0 1.186124,0.548747 1.186124,1.225661 z"
       sodipodi:ry="1.2256612"
       sodipodi:rx="1.1861236"
       sodipodi:cy="39.578522"
       sodipodi:cx="40.40728"
       id="path4705"
       style="opacity:0.2;fill:#555753;fill-opacity:1;stroke:none"
       sodipodi:type="arc" />
    <path
       transform="matrix(0.843082,0,0,0.815886,-29.07935,0.752306)"
       d="m 41.593404,39.578522 c 0,0.676914 -0.531046,1.225661 -1.186124,1.225661 -0.655078,0 -1.186124,-0.548747 -1.186124,-1.225661 0,-0.676914 0.531046,-1.225661 1.186124,-1.225661 0.655078,0 1.186124,0.548747 1.186124,1.225661 z"
       sodipodi:ry="1.2256612"
       sodipodi:rx="1.1861236"
       sodipodi:cy="39.578522"
       sodipodi:cx="40.40728"
       id="path4725"
       style="opacity:0.2;fill:#555753;fill-opacity:1;stroke:none"
       sodipodi:type="arc" />
    <path
       transform="matrix(0.865857,0,0,0.867701,3.203635,1.671439)"
       d="m 43.045126,18.87604 c 0,1.586504 -1.286117,2.872621 -2.872622,2.872621 -1.586505,0 -2.872621,-1.286117 -2.872621,-2.872621 0,-1.586505 1.286116,-2.872622 2.872621,-2.872622 1.586505,0 2.872622,1.286117 2.872622,2.872622 z"
       sodipodi:ry="2.8726213"
       sodipodi:rx="2.8726213"
       sodipodi:cy="18.87604"
       sodipodi:cx="40.172504"
       id="path4731"
       style="fill:#babdb6;fill-opacity:1;stroke:#888a85;stroke-width:1.15369642;stroke-linecap:round;stroke-linejoin:miter;stroke-miterlimit:4;stroke-opacity:1;stroke-dasharray:none;stroke-dashoffset:0"
       sodipodi:type="arc" />
    <path
       transform="matrix(0.531927,0,0,0.527521,16.61298,8.07583)"
       d="m 43.045126,18.87604 c 0,1.586504 -1.286117,2.872621 -2.872622,2.872621 -1.586505,0 -2.872621,-1.286117 -2.872621,-2.872621 0,-1.586505 1.286116,-2.872622 2.872621,-2.872622 1.586505,0 2.872622,1.286117 2.872622,2.872622 z"
       sodipodi:ry="2.8726213"
       sodipodi:rx="2.8726213"
       sodipodi:cy="18.87604"
       sodipodi:cx="40.172504"
       id="path4733"
       style="opacity:0.42473115;fill:none;stroke:#ffffff;stroke-width:1.88779092;stroke-linecap:round;stroke-linejoin:miter;stroke-miterlimit:4;stroke-opacity:1;stroke-dasharray:none;stroke-dashoffset:0"
       sodipodi:type="arc" />
    <rect
       y="20.043848"
       x="2.9872968"
       height="4"
       width="31"
       id="rect5509"
       style="opacity:0.51075266;fill:#ffffff;fill-opacity:1;stroke:none" />
    <path
       id="path5511"
       d="m 6.5428523,20.043848 -3.5555556,4 4.4444445,0 3.5555558,-4 -4.4444447,0 z"
       style="opacity:0.58064515;fill:#1a1b19;fill-opacity:1;fill-rule:evenodd;stroke:none"
       inkscape:connector-curvature="0" />
    <path
       id="path5515"
       d="m 15.542853,20.043848 -3.555556,4 4.444445,0 3.555555,-4 -4.444444,0 z"
       style="opacity:0.58064515;fill:#1a1b19;fill-opacity:1;fill-rule:evenodd;stroke:none"
       inkscape:connector-curvature="0" />
    <path
       id="path5519"
       d="m 24.542853,20.043848 -3.555556,4 4.444445,0 3.555555,-4 -4.444444,0 z"
       style="opacity:0.58064515;fill:#1a1b19;fill-opacity:1;fill-rule:evenodd;stroke:none"
       inkscape:connector-curvature="0" />
    <path
       sodipodi:nodetypes="ccccccccc"
       id="path4727"
       d="m 3.5093078,20.546615 0,21.585614 c 0.028391,1.007599 0.7253091,1.484868 1.5271694,1.415931 l 35.8970168,0 c 1.027758,-0.06717 1.637518,-0.542678 1.575058,-1.415931 l 0,-27.602941 -8.985134,0 0,6.017327 -30.0141102,0 z"
       style="opacity:0.8;fill:none;stroke:#ffffff;stroke-width:1.00000012px;stroke-linecap:butt;stroke-linejoin:miter;stroke-opacity:1"
       inkscape:connector-curvature="0" />
    <g
       transform="translate(-0.00375939,0.039361)"
       id="g14818">
      <path
         sodipodi:type="arc"
         style="fill:#555753;fill-opacity:1;stroke:#2e3436;stroke-width:0.71646953;stroke-linecap:round;stroke-linejoin:miter;stroke-miterlimit:4;stroke-opacity:1;stroke-dasharray:none;stroke-dashoffset:0"
         id="path12618"
         sodipodi:cx="40.262024"
         sodipodi:cy="37.714081"
         sodipodi:rx="7.869544"
         sodipodi:ry="7.869544"
         d="m 48.131568,37.714081 c 0,4.346229 -3.523315,7.869544 -7.869544,7.869544 -4.346229,0 -7.869544,-3.523315 -7.869544,-7.869544 0,-4.346229 3.523315,-7.869544 7.869544,-7.869544 4.346229,0 7.869544,3.523315 7.869544,7.869544 z"
         transform="matrix(1.394426,0,0,1.397041,-20.64242,-17.20969)" />
      <path
         sodipodi:type="arc"
         style="opacity:0.5;fill:none;stroke:#ffffff;stroke-width:0.78675979;stroke-linecap:round;stroke-linejoin:miter;stroke-miterlimit:4;stroke-opacity:1;stroke-dasharray:none;stroke-dashoffset:0"
         id="path12620"
         sodipodi:cx="40.262024"
         sodipodi:cy="37.714081"
         sodipodi:rx="7.869544"
         sodipodi:ry="7.869544"
         d="m 48.131568,37.714081 c 0,4.346229 -3.523315,7.869544 -7.869544,7.869544 -4.346229,0 -7.869544,-3.523315 -7.869544,-7.869544 0,-4.346229 3.523315,-7.869544 7.869544,-7.869544 4.346229,0 7.869544,3.523315 7.869544,7.869544 z"
         transform="matrix(1.270384,0,0,1.271689,-15.62291,-12.44712)" />
      <text
         xml:space="preserve"
         style="font-size:17.77074623px;font-style:normal;font-variant:normal;font-weight:bold;font-stretch:normal;text-align:start;line-height:125%;writing-mode:lr-tb;text-anchor:start;fill:#ffffff;fill-opacity:1;stroke:none;font-family:Bitstream Vera Sans"
         x="29.695"
         y="42.622952"
         id="text14814"
         sodipodi:linespacing="125%"
         transform="scale(0.997997,1.002007)"><tspan
           sodipodi:role="line"
           id="tspan14816"
           x="29.695"
           y="42.622952">5</tspan></text>
      <path
         style="fill:none;stroke:#2e3436;stroke-width:1px;stroke-linecap:round;stroke-linejoin:miter;stroke-opacity:1"
         d="m 35.5,23.444694 0,13.055306 12.05018,0"
         id="path13352"
         sodipodi:nodetypes="ccc"
         inkscape:connector-curvature="0" />
      <path
         style="opacity:0.7;fill:#eeeeec;fill-opacity:1;fill-rule:evenodd;stroke:none"
         d="M 35.967347,24.046481 36,36 47.036795,36.03265 c 0,0 0.364314,-4.800587 -3.219391,-8.428175 -3.600556,-3.644646 -7.850057,-3.557998 -7.850057,-3.557998 z"
         id="path13354"
         sodipodi:nodetypes="ccczc"
         inkscape:connector-curvature="0" />
      <path
         transform="translate(0.00375939,-0.039361)"
         id="path2837"
         d="m 35.465718,45.460137 0,2.124249"
         style="fill:none;stroke:#2e3436;stroke-width:1px;stroke-linecap:round;stroke-linejoin:miter;stroke-opacity:1"
         inkscape:connector-curvature="0" />
      <path
         id="path2839"
         d="m 25.628008,36.460639 -2.124249,0"
         style="fill:none;stroke:#2e3436;stroke-width:1px;stroke-linecap:round;stroke-linejoin:miter;stroke-opacity:1"
         inkscape:connector-curvature="0" />
    </g>
  </g>
  <text
     transform="scale(0.95814038,1.0436884)"
     sodipodi:linespacing="100%"
     id="text3115"
     y="156.74561"
     x="398.83063"
     style="font-size:83.03822327px;font-style:normal;font-variant:normal;font-weight:normal;font-stretch:normal;text-indent:0;text-align:start;text-decoration:none;line-height:100%;letter-spacing:normal;word-spacing:normal;text-transform:none;direction:ltr;block-progression:tb;writing-mode:lr-tb;text-anchor:start;fill:#000000;fill-opacity:1;fill-rule:nonzero;stroke:none;stroke-width:1px;marker:none;visibility:visible;display:inline;overflow:visible;enable-background:accumulate;font-family:BetecknaLowerCase;-inkscape-font-specification:BetecknaLowerCase"
     xml:space="preserve"><tspan
       style="font-size:83.03822327px;font-style:normal;font-variant:normal;font-weight:normal;font-stretch:normal;text-align:start;line-height:100%;writing-mode:lr-tb;text-anchor:start;fill:#000000;fill-opacity:1;font-family:BetecknaLowerCase;-inkscape-font-specification:BetecknaLowerCase"
       y="156.74561"
       x="398.83063"
       id="tspan3117"
       sodipodi:role="line">Pitivi <tspan
   id="tspan3119"
   style="font-size:19.0627346px">fundraising</tspan></tspan></text>
  <text
     transform="scale(0.95814038,1.0436884)"
     sodipodi:linespacing="100%"
     id="text3121"
     y="156.75732"
     x="398.85324"
     style="font-size:83.03822327px;font-style:normal;font-variant:normal;font-weight:normal;font-stretch:normal;text-indent:0;text-align:start;text-decoration:none;line-height:100%;letter-spacing:normal;word-spacing:normal;text-transform:none;direction:ltr;block-progression:tb;writing-mode:lr-tb;text-anchor:start;fill:url(#linearGradient3311);fill-opacity:1;fill-rule:nonzero;stroke:none;stroke-width:1px;marker:none;visibility:visible;display:inline;overflow:visible;enable-background:accumulate;font-family:BetecknaLowerCase;-inkscape-font-specification:BetecknaLowerCase"
     xml:space="preserve"><tspan
       style="font-size:83.03822327px;font-style:normal;font-variant:normal;font-weight:normal;font-stretch:normal;text-align:start;line-height:100%;writing-mode:lr-tb;text-anchor:start;fill:url(#linearGradient3311);fill-opacity:1;font-family:BetecknaLowerCase;-inkscape-font-specification:BetecknaLowerCase"
       y="156.75732"
       x="398.85324"
       id="tspan3123"
       sodipodi:role="line">Pitivi <tspan
   id="tspan3125"
   style="font-size:19.0627346px;fill:url(#linearGradient3311)">fundraising</tspan></tspan><tspan
       id="tspan3127"
       style="font-size:36.3924942px;font-style:normal;font-variant:normal;font-weight:normal;font-stretch:normal;text-align:start;line-height:100%;writing-mode:lr-tb;text-anchor:start;fill:url(#linearGradient3311);fill-opacity:1;font-family:BetecknaLowerCase;-inkscape-font-specification:BetecknaLowerCase"
       y="239.79555"
       x="398.85324"
       sodipodi:role="line" /></text>
  <g
     transform="matrix(2.5611303,0,0,2.789802,234.70455,58.05231)"
     id="g3129"
     inkscape:label="Layer 1"
     style="display:inline">
    <path
       sodipodi:type="arc"
       style="opacity:0.2;fill:url(#radialGradient14828-4);fill-opacity:1;stroke:none"
       id="path3131"
       sodipodi:cx="24.57196"
       sodipodi:cy="43.492195"
       sodipodi:rx="22.273863"
       sodipodi:ry="2.9168155"
       d="m 46.845823,43.492195 c 0,1.610913 -9.972348,2.916816 -22.273863,2.916816 -12.301514,0 -22.2738624,-1.305903 -22.2738624,-2.916816 0,-1.610913 9.9723484,-2.916815 22.2738624,-2.916815 12.301515,0 22.273863,1.305902 22.273863,2.916815 z"
       transform="matrix(0.538748,0,0,0.857097,22.76191,8.222984)" />
    <path
       sodipodi:type="arc"
       style="opacity:0.2;fill:url(#radialGradient5507-2);fill-opacity:1;stroke:none"
       id="path3133"
       sodipodi:cx="24.57196"
       sodipodi:cy="43.492195"
       sodipodi:rx="22.273863"
       sodipodi:ry="2.9168155"
       d="m 46.845823,43.492195 c 0,1.610913 -9.972348,2.916816 -22.273863,2.916816 -12.301514,0 -22.2738624,-1.305903 -22.2738624,-2.916816 0,-1.610913 9.9723484,-2.916815 22.2738624,-2.916815 12.301515,0 22.273863,1.305902 22.273863,2.916815 z"
       transform="matrix(1.077496,0,0,1.272729,-2.47619,-11.0661)" />
    <g
       id="g3135"
       transform="matrix(0.965926,0.258819,-0.258819,0.965926,3.886389,-10.47017)">
      <rect
         ry="0"
         rx="0"
         y="11.5"
         x="3.5000005"
         height="6.9678578"
         width="41.041309"
         id="rect3137"
         style="fill:url(#radialGradient4771-1);fill-opacity:1;stroke:#666863;stroke-width:1.00000083;stroke-linecap:round;stroke-linejoin:round;stroke-miterlimit:4;stroke-opacity:1;stroke-dasharray:none;stroke-dashoffset:0" />
      <path
         inkscape:connector-curvature="0"
         id="path3139"
         d="m 8,12 -4,6 5,0 4,-6 -5,0 z"
         style="fill:#ad1919;fill-opacity:1;fill-rule:evenodd;stroke:none" />
      <path
         inkscape:connector-curvature="0"
         id="path3141"
         d="m 18,12 -4,6 5,0 4,-6 -5,0 z"
         style="fill:#5fa41e;fill-opacity:1;fill-rule:evenodd;stroke:none" />
      <path
         inkscape:connector-curvature="0"
         id="path3143"
         d="m 28,12 -4,6 5,0 4,-6 -5,0 z"
         style="fill:#365c93;fill-opacity:1;fill-rule:evenodd;stroke:none" />
      <path
         inkscape:connector-curvature="0"
         id="path3145"
         d="m 38,12 -4,6 5,0 4,-6 -5,0 z"
         style="fill:#555753;fill-opacity:1;fill-rule:evenodd;stroke:none" />
      <rect
         ry="0"
         rx="0"
         y="12.423516"
         x="4.4951787"
         height="5.1172376"
         width="38.99189"
         id="rect3147"
         style="opacity:0.5;fill:none;stroke:#ffffff;stroke-width:1;stroke-linecap:round;stroke-linejoin:miter;stroke-miterlimit:4;stroke-opacity:1;stroke-dasharray:none;stroke-dashoffset:0" />
    </g>
    <path
       inkscape:connector-curvature="0"
       style="fill:url(#radialGradient4741-7);fill-opacity:1;fill-rule:evenodd;stroke:#767872;stroke-width:1.00000012px;stroke-linecap:butt;stroke-linejoin:miter;stroke-opacity:1"
       d="m 2.4881176,19.543848 0,23 c 0.029811,1.071428 1.1328072,2.142857 2.0211665,1.928571 l 36.8102699,0 c 1.079148,-0.07143 2.229841,-1 2.164258,-1.928571 l 0,-28.928571 -10.96132,0 0,5.928571 -30.0343744,0 z"
       id="path3149"
       sodipodi:nodetypes="ccccccccc" />
    <path
       sodipodi:type="arc"
       style="opacity:0.2;fill:#555753;fill-opacity:1;stroke:none"
       id="path3151"
       sodipodi:cx="40.40728"
       sodipodi:cy="39.578522"
       sodipodi:rx="1.1861236"
       sodipodi:ry="1.2256612"
       d="m 41.593404,39.578522 c 0,0.676914 -0.531046,1.225661 -1.186124,1.225661 -0.655078,0 -1.186124,-0.548747 -1.186124,-1.225661 0,-0.676914 0.531046,-1.225661 1.186124,-1.225661 0.655078,0 1.186124,0.548747 1.186124,1.225661 z"
       transform="matrix(0.843082,0,0,0.815886,6.920598,9.752308)" />
    <path
       sodipodi:type="arc"
       style="opacity:0.2;fill:#555753;fill-opacity:1;stroke:none"
       id="path3153"
       sodipodi:cx="40.40728"
       sodipodi:cy="39.578522"
       sodipodi:rx="1.1861236"
       sodipodi:ry="1.2256612"
       d="m 41.593404,39.578522 c 0,0.676914 -0.531046,1.225661 -1.186124,1.225661 -0.655078,0 -1.186124,-0.548747 -1.186124,-1.225661 0,-0.676914 0.531046,-1.225661 1.186124,-1.225661 0.655078,0 1.186124,0.548747 1.186124,1.225661 z"
       transform="matrix(0.843082,0,0,0.815886,6.920599,6.752308)" />
    <path
       sodipodi:type="arc"
       style="opacity:0.2;fill:#555753;fill-opacity:1;stroke:none"
       id="path3155"
       sodipodi:cx="40.40728"
       sodipodi:cy="39.578522"
       sodipodi:rx="1.1861236"
       sodipodi:ry="1.2256612"
       d="m 41.593404,39.578522 c 0,0.676914 -0.531046,1.225661 -1.186124,1.225661 -0.655078,0 -1.186124,-0.548747 -1.186124,-1.225661 0,-0.676914 0.531046,-1.225661 1.186124,-1.225661 0.655078,0 1.186124,0.548747 1.186124,1.225661 z"
       transform="matrix(0.843082,0,0,0.815886,6.920604,3.75231)" />
    <path
       sodipodi:type="arc"
       style="opacity:0.2;fill:#555753;fill-opacity:1;stroke:none"
       id="path3157"
       sodipodi:cx="40.40728"
       sodipodi:cy="39.578522"
       sodipodi:rx="1.1861236"
       sodipodi:ry="1.2256612"
       d="m 41.593404,39.578522 c 0,0.676914 -0.531046,1.225661 -1.186124,1.225661 -0.655078,0 -1.186124,-0.548747 -1.186124,-1.225661 0,-0.676914 0.531046,-1.225661 1.186124,-1.225661 0.655078,0 1.186124,0.548747 1.186124,1.225661 z"
       transform="matrix(0.843082,0,0,0.815886,6.920605,0.752308)" />
    <path
       sodipodi:type="arc"
       style="opacity:0.2;fill:#555753;fill-opacity:1;stroke:none"
       id="path3159"
       sodipodi:cx="40.40728"
       sodipodi:cy="39.578522"
       sodipodi:rx="1.1861236"
       sodipodi:ry="1.2256612"
       d="m 41.593404,39.578522 c 0,0.676914 -0.531046,1.225661 -1.186124,1.225661 -0.655078,0 -1.186124,-0.548747 -1.186124,-1.225661 0,-0.676914 0.531046,-1.225661 1.186124,-1.225661 0.655078,0 1.186124,0.548747 1.186124,1.225661 z"
       transform="matrix(0.843082,0,0,0.815886,6.920593,-2.247692)" />
    <path
       sodipodi:type="arc"
       style="opacity:0.2;fill:#555753;fill-opacity:1;stroke:none"
       id="path3161"
       sodipodi:cx="40.40728"
       sodipodi:cy="39.578522"
       sodipodi:rx="1.1861236"
       sodipodi:ry="1.2256612"
       d="m 41.593404,39.578522 c 0,0.676914 -0.531046,1.225661 -1.186124,1.225661 -0.655078,0 -1.186124,-0.548747 -1.186124,-1.225661 0,-0.676914 0.531046,-1.225661 1.186124,-1.225661 0.655078,0 1.186124,0.548747 1.186124,1.225661 z"
       transform="matrix(0.843082,0,0,0.815886,3.920611,9.752308)" />
    <path
       sodipodi:type="arc"
       style="opacity:0.2;fill:#555753;fill-opacity:1;stroke:none"
       id="path3163"
       sodipodi:cx="40.40728"
       sodipodi:cy="39.578522"
       sodipodi:rx="1.1861236"
       sodipodi:ry="1.2256612"
       d="m 41.593404,39.578522 c 0,0.676914 -0.531046,1.225661 -1.186124,1.225661 -0.655078,0 -1.186124,-0.548747 -1.186124,-1.225661 0,-0.676914 0.531046,-1.225661 1.186124,-1.225661 0.655078,0 1.186124,0.548747 1.186124,1.225661 z"
       transform="matrix(0.843082,0,0,0.815886,3.920612,6.752306)" />
    <path
       sodipodi:type="arc"
       style="opacity:0.2;fill:#555753;fill-opacity:1;stroke:none"
       id="path3165"
       sodipodi:cx="40.40728"
       sodipodi:cy="39.578522"
       sodipodi:rx="1.1861236"
       sodipodi:ry="1.2256612"
       d="m 41.593404,39.578522 c 0,0.676914 -0.531046,1.225661 -1.186124,1.225661 -0.655078,0 -1.186124,-0.548747 -1.186124,-1.225661 0,-0.676914 0.531046,-1.225661 1.186124,-1.225661 0.655078,0 1.186124,0.548747 1.186124,1.225661 z"
       transform="matrix(0.843082,0,0,0.815886,3.920617,3.752316)" />
    <path
       sodipodi:type="arc"
       style="opacity:0.2;fill:#555753;fill-opacity:1;stroke:none"
       id="path3167"
       sodipodi:cx="40.40728"
       sodipodi:cy="39.578522"
       sodipodi:rx="1.1861236"
       sodipodi:ry="1.2256612"
       d="m 41.593404,39.578522 c 0,0.676914 -0.531046,1.225661 -1.186124,1.225661 -0.655078,0 -1.186124,-0.548747 -1.186124,-1.225661 0,-0.676914 0.531046,-1.225661 1.186124,-1.225661 0.655078,0 1.186124,0.548747 1.186124,1.225661 z"
       transform="matrix(0.843082,0,0,0.815886,3.920618,0.752306)" />
    <path
       sodipodi:type="arc"
       style="opacity:0.2;fill:#555753;fill-opacity:1;stroke:none"
       id="path3169"
       sodipodi:cx="40.40728"
       sodipodi:cy="39.578522"
       sodipodi:rx="1.1861236"
       sodipodi:ry="1.2256612"
       d="m 41.593404,39.578522 c 0,0.676914 -0.531046,1.225661 -1.186124,1.225661 -0.655078,0 -1.186124,-0.548747 -1.186124,-1.225661 0,-0.676914 0.531046,-1.225661 1.186124,-1.225661 0.655078,0 1.186124,0.548747 1.186124,1.225661 z"
       transform="matrix(0.843082,0,0,0.815886,3.920606,-2.247694)" />
    <path
       sodipodi:type="arc"
       style="opacity:0.2;fill:#555753;fill-opacity:1;stroke:none"
       id="path3171"
       sodipodi:cx="40.40728"
       sodipodi:cy="39.578522"
       sodipodi:rx="1.1861236"
       sodipodi:ry="1.2256612"
       d="m 41.593404,39.578522 c 0,0.676914 -0.531046,1.225661 -1.186124,1.225661 -0.655078,0 -1.186124,-0.548747 -1.186124,-1.225661 0,-0.676914 0.531046,-1.225661 1.186124,-1.225661 0.655078,0 1.186124,0.548747 1.186124,1.225661 z"
       transform="matrix(0.843082,0,0,0.815886,3.920607,-5.247692)" />
    <path
       sodipodi:type="arc"
       style="opacity:0.2;fill:#555753;fill-opacity:1;stroke:none"
       id="path3173"
       sodipodi:cx="40.40728"
       sodipodi:cy="39.578522"
       sodipodi:rx="1.1861236"
       sodipodi:ry="1.2256612"
       d="m 41.593404,39.578522 c 0,0.676914 -0.531046,1.225661 -1.186124,1.225661 -0.655078,0 -1.186124,-0.548747 -1.186124,-1.225661 0,-0.676914 0.531046,-1.225661 1.186124,-1.225661 0.655078,0 1.186124,0.548747 1.186124,1.225661 z"
       transform="matrix(0.843082,0,0,0.815886,0.920585,9.752298)" />
    <path
       sodipodi:type="arc"
       style="opacity:0.2;fill:#555753;fill-opacity:1;stroke:none"
       id="path3175"
       sodipodi:cx="40.40728"
       sodipodi:cy="39.578522"
       sodipodi:rx="1.1861236"
       sodipodi:ry="1.2256612"
       d="m 41.593404,39.578522 c 0,0.676914 -0.531046,1.225661 -1.186124,1.225661 -0.655078,0 -1.186124,-0.548747 -1.186124,-1.225661 0,-0.676914 0.531046,-1.225661 1.186124,-1.225661 0.655078,0 1.186124,0.548747 1.186124,1.225661 z"
       transform="matrix(0.843082,0,0,0.815886,0.920586,6.752298)" />
    <path
       sodipodi:type="arc"
       style="opacity:0.2;fill:#555753;fill-opacity:1;stroke:none"
       id="path3177"
       sodipodi:cx="40.40728"
       sodipodi:cy="39.578522"
       sodipodi:rx="1.1861236"
       sodipodi:ry="1.2256612"
       d="m 41.593404,39.578522 c 0,0.676914 -0.531046,1.225661 -1.186124,1.225661 -0.655078,0 -1.186124,-0.548747 -1.186124,-1.225661 0,-0.676914 0.531046,-1.225661 1.186124,-1.225661 0.655078,0 1.186124,0.548747 1.186124,1.225661 z"
       transform="matrix(0.843082,0,0,0.815886,0.920591,3.7523)" />
    <path
       sodipodi:type="arc"
       style="opacity:0.2;fill:#555753;fill-opacity:1;stroke:none"
       id="path3179"
       sodipodi:cx="40.40728"
       sodipodi:cy="39.578522"
       sodipodi:rx="1.1861236"
       sodipodi:ry="1.2256612"
       d="m 41.593404,39.578522 c 0,0.676914 -0.531046,1.225661 -1.186124,1.225661 -0.655078,0 -1.186124,-0.548747 -1.186124,-1.225661 0,-0.676914 0.531046,-1.225661 1.186124,-1.225661 0.655078,0 1.186124,0.548747 1.186124,1.225661 z"
       transform="matrix(0.843082,0,0,0.815886,0.920592,0.752298)" />
    <path
       sodipodi:type="arc"
       style="opacity:0.2;fill:#555753;fill-opacity:1;stroke:none"
       id="path3181"
       sodipodi:cx="40.40728"
       sodipodi:cy="39.578522"
       sodipodi:rx="1.1861236"
       sodipodi:ry="1.2256612"
       d="m 41.593404,39.578522 c 0,0.676914 -0.531046,1.225661 -1.186124,1.225661 -0.655078,0 -1.186124,-0.548747 -1.186124,-1.225661 0,-0.676914 0.531046,-1.225661 1.186124,-1.225661 0.655078,0 1.186124,0.548747 1.186124,1.225661 z"
       transform="matrix(0.843082,0,0,0.815886,0.92058,-2.247702)" />
    <path
       sodipodi:type="arc"
       style="opacity:0.2;fill:#555753;fill-opacity:1;stroke:none"
       id="path3183"
       sodipodi:cx="40.40728"
       sodipodi:cy="39.578522"
       sodipodi:rx="1.1861236"
       sodipodi:ry="1.2256612"
       d="m 41.593404,39.578522 c 0,0.676914 -0.531046,1.225661 -1.186124,1.225661 -0.655078,0 -1.186124,-0.548747 -1.186124,-1.225661 0,-0.676914 0.531046,-1.225661 1.186124,-1.225661 0.655078,0 1.186124,0.548747 1.186124,1.225661 z"
       transform="matrix(0.843082,0,0,0.815886,0.920581,-5.247704)" />
    <path
       sodipodi:type="arc"
       style="opacity:0.2;fill:#555753;fill-opacity:1;stroke:none"
       id="path3185"
       sodipodi:cx="40.40728"
       sodipodi:cy="39.578522"
       sodipodi:rx="1.1861236"
       sodipodi:ry="1.2256612"
       d="m 41.593404,39.578522 c 0,0.676914 -0.531046,1.225661 -1.186124,1.225661 -0.655078,0 -1.186124,-0.548747 -1.186124,-1.225661 0,-0.676914 0.531046,-1.225661 1.186124,-1.225661 0.655078,0 1.186124,0.548747 1.186124,1.225661 z"
       transform="matrix(0.843082,0,0,0.815886,-2.079402,9.752298)" />
    <path
       sodipodi:type="arc"
       style="opacity:0.2;fill:#555753;fill-opacity:1;stroke:none"
       id="path3187"
       sodipodi:cx="40.40728"
       sodipodi:cy="39.578522"
       sodipodi:rx="1.1861236"
       sodipodi:ry="1.2256612"
       d="m 41.593404,39.578522 c 0,0.676914 -0.531046,1.225661 -1.186124,1.225661 -0.655078,0 -1.186124,-0.548747 -1.186124,-1.225661 0,-0.676914 0.531046,-1.225661 1.186124,-1.225661 0.655078,0 1.186124,0.548747 1.186124,1.225661 z"
       transform="matrix(0.843082,0,0,0.815886,-2.079401,6.752298)" />
    <path
       sodipodi:type="arc"
       style="opacity:0.2;fill:#555753;fill-opacity:1;stroke:none"
       id="path3189"
       sodipodi:cx="40.40728"
       sodipodi:cy="39.578522"
       sodipodi:rx="1.1861236"
       sodipodi:ry="1.2256612"
       d="m 41.593404,39.578522 c 0,0.676914 -0.531046,1.225661 -1.186124,1.225661 -0.655078,0 -1.186124,-0.548747 -1.186124,-1.225661 0,-0.676914 0.531046,-1.225661 1.186124,-1.225661 0.655078,0 1.186124,0.548747 1.186124,1.225661 z"
       transform="matrix(0.843082,0,0,0.815886,-2.079396,3.752306)" />
    <path
       sodipodi:type="arc"
       style="opacity:0.2;fill:#555753;fill-opacity:1;stroke:none"
       id="path3191"
       sodipodi:cx="40.40728"
       sodipodi:cy="39.578522"
       sodipodi:rx="1.1861236"
       sodipodi:ry="1.2256612"
       d="m 41.593404,39.578522 c 0,0.676914 -0.531046,1.225661 -1.186124,1.225661 -0.655078,0 -1.186124,-0.548747 -1.186124,-1.225661 0,-0.676914 0.531046,-1.225661 1.186124,-1.225661 0.655078,0 1.186124,0.548747 1.186124,1.225661 z"
       transform="matrix(0.843082,0,0,0.815886,-2.079395,0.752296)" />
    <path
       sodipodi:type="arc"
       style="opacity:0.2;fill:#555753;fill-opacity:1;stroke:none"
       id="path3193"
       sodipodi:cx="40.40728"
       sodipodi:cy="39.578522"
       sodipodi:rx="1.1861236"
       sodipodi:ry="1.2256612"
       d="m 41.593404,39.578522 c 0,0.676914 -0.531046,1.225661 -1.186124,1.225661 -0.655078,0 -1.186124,-0.548747 -1.186124,-1.225661 0,-0.676914 0.531046,-1.225661 1.186124,-1.225661 0.655078,0 1.186124,0.548747 1.186124,1.225661 z"
       transform="matrix(0.843082,0,0,0.815886,-2.079407,-2.247704)" />
    <path
       sodipodi:type="arc"
       style="opacity:0.2;fill:#555753;fill-opacity:1;stroke:none"
       id="path3195"
       sodipodi:cx="40.40728"
       sodipodi:cy="39.578522"
       sodipodi:rx="1.1861236"
       sodipodi:ry="1.2256612"
       d="m 41.593404,39.578522 c 0,0.676914 -0.531046,1.225661 -1.186124,1.225661 -0.655078,0 -1.186124,-0.548747 -1.186124,-1.225661 0,-0.676914 0.531046,-1.225661 1.186124,-1.225661 0.655078,0 1.186124,0.548747 1.186124,1.225661 z"
       transform="matrix(0.843082,0,0,0.815886,-2.079406,-5.247702)" />
    <path
       sodipodi:type="arc"
       style="opacity:0.2;fill:#555753;fill-opacity:1;stroke:none"
       id="path3197"
       sodipodi:cx="40.40728"
       sodipodi:cy="39.578522"
       sodipodi:rx="1.1861236"
       sodipodi:ry="1.2256612"
       d="m 41.593404,39.578522 c 0,0.676914 -0.531046,1.225661 -1.186124,1.225661 -0.655078,0 -1.186124,-0.548747 -1.186124,-1.225661 0,-0.676914 0.531046,-1.225661 1.186124,-1.225661 0.655078,0 1.186124,0.548747 1.186124,1.225661 z"
       transform="matrix(0.843082,0,0,0.815886,-5.079378,9.752298)" />
    <path
       sodipodi:type="arc"
       style="opacity:0.2;fill:#555753;fill-opacity:1;stroke:none"
       id="path3199"
       sodipodi:cx="40.40728"
       sodipodi:cy="39.578522"
       sodipodi:rx="1.1861236"
       sodipodi:ry="1.2256612"
       d="m 41.593404,39.578522 c 0,0.676914 -0.531046,1.225661 -1.186124,1.225661 -0.655078,0 -1.186124,-0.548747 -1.186124,-1.225661 0,-0.676914 0.531046,-1.225661 1.186124,-1.225661 0.655078,0 1.186124,0.548747 1.186124,1.225661 z"
       transform="matrix(0.843082,0,0,0.815886,-5.079378,6.752298)" />
    <path
       sodipodi:type="arc"
       style="opacity:0.2;fill:#555753;fill-opacity:1;stroke:none"
       id="path3201"
       sodipodi:cx="40.40728"
       sodipodi:cy="39.578522"
       sodipodi:rx="1.1861236"
       sodipodi:ry="1.2256612"
       d="m 41.593404,39.578522 c 0,0.676914 -0.531046,1.225661 -1.186124,1.225661 -0.655078,0 -1.186124,-0.548747 -1.186124,-1.225661 0,-0.676914 0.531046,-1.225661 1.186124,-1.225661 0.655078,0 1.186124,0.548747 1.186124,1.225661 z"
       transform="matrix(0.843082,0,0,0.815886,-5.079368,3.7523)" />
    <path
       sodipodi:type="arc"
       style="opacity:0.2;fill:#555753;fill-opacity:1;stroke:none"
       id="path3203"
       sodipodi:cx="40.40728"
       sodipodi:cy="39.578522"
       sodipodi:rx="1.1861236"
       sodipodi:ry="1.2256612"
       d="m 41.593404,39.578522 c 0,0.676914 -0.531046,1.225661 -1.186124,1.225661 -0.655078,0 -1.186124,-0.548747 -1.186124,-1.225661 0,-0.676914 0.531046,-1.225661 1.186124,-1.225661 0.655078,0 1.186124,0.548747 1.186124,1.225661 z"
       transform="matrix(0.843082,0,0,0.815886,-5.079368,0.752298)" />
    <path
       sodipodi:type="arc"
       style="opacity:0.2;fill:#555753;fill-opacity:1;stroke:none"
       id="path3205"
       sodipodi:cx="40.40728"
       sodipodi:cy="39.578522"
       sodipodi:rx="1.1861236"
       sodipodi:ry="1.2256612"
       d="m 41.593404,39.578522 c 0,0.676914 -0.531046,1.225661 -1.186124,1.225661 -0.655078,0 -1.186124,-0.548747 -1.186124,-1.225661 0,-0.676914 0.531046,-1.225661 1.186124,-1.225661 0.655078,0 1.186124,0.548747 1.186124,1.225661 z"
       transform="matrix(0.843082,0,0,0.815886,-5.079378,-2.247702)" />
    <path
       sodipodi:type="arc"
       style="opacity:0.2;fill:#555753;fill-opacity:1;stroke:none"
       id="path3207"
       sodipodi:cx="40.40728"
       sodipodi:cy="39.578522"
       sodipodi:rx="1.1861236"
       sodipodi:ry="1.2256612"
       d="m 41.593404,39.578522 c 0,0.676914 -0.531046,1.225661 -1.186124,1.225661 -0.655078,0 -1.186124,-0.548747 -1.186124,-1.225661 0,-0.676914 0.531046,-1.225661 1.186124,-1.225661 0.655078,0 1.186124,0.548747 1.186124,1.225661 z"
       transform="matrix(0.843082,0,0,0.815886,-8.079363,9.752298)" />
    <path
       sodipodi:type="arc"
       style="opacity:0.2;fill:#555753;fill-opacity:1;stroke:none"
       id="path3209"
       sodipodi:cx="40.40728"
       sodipodi:cy="39.578522"
       sodipodi:rx="1.1861236"
       sodipodi:ry="1.2256612"
       d="m 41.593404,39.578522 c 0,0.676914 -0.531046,1.225661 -1.186124,1.225661 -0.655078,0 -1.186124,-0.548747 -1.186124,-1.225661 0,-0.676914 0.531046,-1.225661 1.186124,-1.225661 0.655078,0 1.186124,0.548747 1.186124,1.225661 z"
       transform="matrix(0.843082,0,0,0.815886,-8.079362,6.752296)" />
    <path
       sodipodi:type="arc"
       style="opacity:0.2;fill:#555753;fill-opacity:1;stroke:none"
       id="path3211"
       sodipodi:cx="40.40728"
       sodipodi:cy="39.578522"
       sodipodi:rx="1.1861236"
       sodipodi:ry="1.2256612"
       d="m 41.593404,39.578522 c 0,0.676914 -0.531046,1.225661 -1.186124,1.225661 -0.655078,0 -1.186124,-0.548747 -1.186124,-1.225661 0,-0.676914 0.531046,-1.225661 1.186124,-1.225661 0.655078,0 1.186124,0.548747 1.186124,1.225661 z"
       transform="matrix(0.843082,0,0,0.815886,-8.079357,3.752306)" />
    <path
       sodipodi:type="arc"
       style="opacity:0.2;fill:#555753;fill-opacity:1;stroke:none"
       id="path3213"
       sodipodi:cx="40.40728"
       sodipodi:cy="39.578522"
       sodipodi:rx="1.1861236"
       sodipodi:ry="1.2256612"
       d="m 41.593404,39.578522 c 0,0.676914 -0.531046,1.225661 -1.186124,1.225661 -0.655078,0 -1.186124,-0.548747 -1.186124,-1.225661 0,-0.676914 0.531046,-1.225661 1.186124,-1.225661 0.655078,0 1.186124,0.548747 1.186124,1.225661 z"
       transform="matrix(0.843082,0,0,0.815886,-8.079356,0.752296)" />
    <path
       sodipodi:type="arc"
       style="opacity:0.2;fill:#555753;fill-opacity:1;stroke:none"
       id="path3215"
       sodipodi:cx="40.40728"
       sodipodi:cy="39.578522"
       sodipodi:rx="1.1861236"
       sodipodi:ry="1.2256612"
       d="m 41.593404,39.578522 c 0,0.676914 -0.531046,1.225661 -1.186124,1.225661 -0.655078,0 -1.186124,-0.548747 -1.186124,-1.225661 0,-0.676914 0.531046,-1.225661 1.186124,-1.225661 0.655078,0 1.186124,0.548747 1.186124,1.225661 z"
       transform="matrix(0.843082,0,0,0.815886,-8.079368,-2.247704)" />
    <path
       sodipodi:type="arc"
       style="opacity:0.2;fill:#555753;fill-opacity:1;stroke:none"
       id="path3217"
       sodipodi:cx="40.40728"
       sodipodi:cy="39.578522"
       sodipodi:rx="1.1861236"
       sodipodi:ry="1.2256612"
       d="m 41.593404,39.578522 c 0,0.676914 -0.531046,1.225661 -1.186124,1.225661 -0.655078,0 -1.186124,-0.548747 -1.186124,-1.225661 0,-0.676914 0.531046,-1.225661 1.186124,-1.225661 0.655078,0 1.186124,0.548747 1.186124,1.225661 z"
       transform="matrix(0.843082,0,0,0.815886,-11.07939,9.752288)" />
    <path
       sodipodi:type="arc"
       style="opacity:0.2;fill:#555753;fill-opacity:1;stroke:none"
       id="path3219"
       sodipodi:cx="40.40728"
       sodipodi:cy="39.578522"
       sodipodi:rx="1.1861236"
       sodipodi:ry="1.2256612"
       d="m 41.593404,39.578522 c 0,0.676914 -0.531046,1.225661 -1.186124,1.225661 -0.655078,0 -1.186124,-0.548747 -1.186124,-1.225661 0,-0.676914 0.531046,-1.225661 1.186124,-1.225661 0.655078,0 1.186124,0.548747 1.186124,1.225661 z"
       transform="matrix(0.843082,0,0,0.815886,-11.07938,6.752288)" />
    <path
       sodipodi:type="arc"
       style="opacity:0.2;fill:#555753;fill-opacity:1;stroke:none"
       id="path3221"
       sodipodi:cx="40.40728"
       sodipodi:cy="39.578522"
       sodipodi:rx="1.1861236"
       sodipodi:ry="1.2256612"
       d="m 41.593404,39.578522 c 0,0.676914 -0.531046,1.225661 -1.186124,1.225661 -0.655078,0 -1.186124,-0.548747 -1.186124,-1.225661 0,-0.676914 0.531046,-1.225661 1.186124,-1.225661 0.655078,0 1.186124,0.548747 1.186124,1.225661 z"
       transform="matrix(0.843082,0,0,0.815886,-11.07938,3.75229)" />
    <path
       sodipodi:type="arc"
       style="opacity:0.2;fill:#555753;fill-opacity:1;stroke:none"
       id="path3223"
       sodipodi:cx="40.40728"
       sodipodi:cy="39.578522"
       sodipodi:rx="1.1861236"
       sodipodi:ry="1.2256612"
       d="m 41.593404,39.578522 c 0,0.676914 -0.531046,1.225661 -1.186124,1.225661 -0.655078,0 -1.186124,-0.548747 -1.186124,-1.225661 0,-0.676914 0.531046,-1.225661 1.186124,-1.225661 0.655078,0 1.186124,0.548747 1.186124,1.225661 z"
       transform="matrix(0.843082,0,0,0.815886,-11.07938,0.752288)" />
    <path
       sodipodi:type="arc"
       style="opacity:0.2;fill:#555753;fill-opacity:1;stroke:none"
       id="path3225"
       sodipodi:cx="40.40728"
       sodipodi:cy="39.578522"
       sodipodi:rx="1.1861236"
       sodipodi:ry="1.2256612"
       d="m 41.593404,39.578522 c 0,0.676914 -0.531046,1.225661 -1.186124,1.225661 -0.655078,0 -1.186124,-0.548747 -1.186124,-1.225661 0,-0.676914 0.531046,-1.225661 1.186124,-1.225661 0.655078,0 1.186124,0.548747 1.186124,1.225661 z"
       transform="matrix(0.843082,0,0,0.815886,-11.07939,-2.247712)" />
    <path
       sodipodi:type="arc"
       style="opacity:0.2;fill:#555753;fill-opacity:1;stroke:none"
       id="path3227"
       sodipodi:cx="40.40728"
       sodipodi:cy="39.578522"
       sodipodi:rx="1.1861236"
       sodipodi:ry="1.2256612"
       d="m 41.593404,39.578522 c 0,0.676914 -0.531046,1.225661 -1.186124,1.225661 -0.655078,0 -1.186124,-0.548747 -1.186124,-1.225661 0,-0.676914 0.531046,-1.225661 1.186124,-1.225661 0.655078,0 1.186124,0.548747 1.186124,1.225661 z"
       transform="matrix(0.843082,0,0,0.815886,-14.07937,9.752288)" />
    <path
       sodipodi:type="arc"
       style="opacity:0.2;fill:#555753;fill-opacity:1;stroke:none"
       id="path3229"
       sodipodi:cx="40.40728"
       sodipodi:cy="39.578522"
       sodipodi:rx="1.1861236"
       sodipodi:ry="1.2256612"
       d="m 41.593404,39.578522 c 0,0.676914 -0.531046,1.225661 -1.186124,1.225661 -0.655078,0 -1.186124,-0.548747 -1.186124,-1.225661 0,-0.676914 0.531046,-1.225661 1.186124,-1.225661 0.655078,0 1.186124,0.548747 1.186124,1.225661 z"
       transform="matrix(0.843082,0,0,0.815886,-14.07937,6.752288)" />
    <path
       sodipodi:type="arc"
       style="opacity:0.2;fill:#555753;fill-opacity:1;stroke:none"
       id="path3231"
       sodipodi:cx="40.40728"
       sodipodi:cy="39.578522"
       sodipodi:rx="1.1861236"
       sodipodi:ry="1.2256612"
       d="m 41.593404,39.578522 c 0,0.676914 -0.531046,1.225661 -1.186124,1.225661 -0.655078,0 -1.186124,-0.548747 -1.186124,-1.225661 0,-0.676914 0.531046,-1.225661 1.186124,-1.225661 0.655078,0 1.186124,0.548747 1.186124,1.225661 z"
       transform="matrix(0.843082,0,0,0.815886,-14.07937,3.752296)" />
    <path
       sodipodi:type="arc"
       style="opacity:0.2;fill:#555753;fill-opacity:1;stroke:none"
       id="path3233"
       sodipodi:cx="40.40728"
       sodipodi:cy="39.578522"
       sodipodi:rx="1.1861236"
       sodipodi:ry="1.2256612"
       d="m 41.593404,39.578522 c 0,0.676914 -0.531046,1.225661 -1.186124,1.225661 -0.655078,0 -1.186124,-0.548747 -1.186124,-1.225661 0,-0.676914 0.531046,-1.225661 1.186124,-1.225661 0.655078,0 1.186124,0.548747 1.186124,1.225661 z"
       transform="matrix(0.843082,0,0,0.815886,-14.07936,0.752286)" />
    <path
       sodipodi:type="arc"
       style="opacity:0.2;fill:#555753;fill-opacity:1;stroke:none"
       id="path3235"
       sodipodi:cx="40.40728"
       sodipodi:cy="39.578522"
       sodipodi:rx="1.1861236"
       sodipodi:ry="1.2256612"
       d="m 41.593404,39.578522 c 0,0.676914 -0.531046,1.225661 -1.186124,1.225661 -0.655078,0 -1.186124,-0.548747 -1.186124,-1.225661 0,-0.676914 0.531046,-1.225661 1.186124,-1.225661 0.655078,0 1.186124,0.548747 1.186124,1.225661 z"
       transform="matrix(0.843082,0,0,0.815886,-17.07937,9.752298)" />
    <path
       sodipodi:type="arc"
       style="opacity:0.2;fill:#555753;fill-opacity:1;stroke:none"
       id="path3237"
       sodipodi:cx="40.40728"
       sodipodi:cy="39.578522"
       sodipodi:rx="1.1861236"
       sodipodi:ry="1.2256612"
       d="m 41.593404,39.578522 c 0,0.676914 -0.531046,1.225661 -1.186124,1.225661 -0.655078,0 -1.186124,-0.548747 -1.186124,-1.225661 0,-0.676914 0.531046,-1.225661 1.186124,-1.225661 0.655078,0 1.186124,0.548747 1.186124,1.225661 z"
       transform="matrix(0.843082,0,0,0.815886,-17.07937,6.752296)" />
    <path
       sodipodi:type="arc"
       style="opacity:0.2;fill:#555753;fill-opacity:1;stroke:none"
       id="path3239"
       sodipodi:cx="40.40728"
       sodipodi:cy="39.578522"
       sodipodi:rx="1.1861236"
       sodipodi:ry="1.2256612"
       d="m 41.593404,39.578522 c 0,0.676914 -0.531046,1.225661 -1.186124,1.225661 -0.655078,0 -1.186124,-0.548747 -1.186124,-1.225661 0,-0.676914 0.531046,-1.225661 1.186124,-1.225661 0.655078,0 1.186124,0.548747 1.186124,1.225661 z"
       transform="matrix(0.843082,0,0,0.815886,-17.07937,3.752296)" />
    <path
       sodipodi:type="arc"
       style="opacity:0.2;fill:#555753;fill-opacity:1;stroke:none"
       id="path3241"
       sodipodi:cx="40.40728"
       sodipodi:cy="39.578522"
       sodipodi:rx="1.1861236"
       sodipodi:ry="1.2256612"
       d="m 41.593404,39.578522 c 0,0.676914 -0.531046,1.225661 -1.186124,1.225661 -0.655078,0 -1.186124,-0.548747 -1.186124,-1.225661 0,-0.676914 0.531046,-1.225661 1.186124,-1.225661 0.655078,0 1.186124,0.548747 1.186124,1.225661 z"
       transform="matrix(0.843082,0,0,0.815886,-17.07936,0.752296)" />
    <path
       sodipodi:type="arc"
       style="opacity:0.2;fill:#555753;fill-opacity:1;stroke:none"
       id="path3243"
       sodipodi:cx="40.40728"
       sodipodi:cy="39.578522"
       sodipodi:rx="1.1861236"
       sodipodi:ry="1.2256612"
       d="m 41.593404,39.578522 c 0,0.676914 -0.531046,1.225661 -1.186124,1.225661 -0.655078,0 -1.186124,-0.548747 -1.186124,-1.225661 0,-0.676914 0.531046,-1.225661 1.186124,-1.225661 0.655078,0 1.186124,0.548747 1.186124,1.225661 z"
       transform="matrix(0.843082,0,0,0.815886,-20.07936,9.752298)" />
    <path
       sodipodi:type="arc"
       style="opacity:0.2;fill:#555753;fill-opacity:1;stroke:none"
       id="path3245"
       sodipodi:cx="40.40728"
       sodipodi:cy="39.578522"
       sodipodi:rx="1.1861236"
       sodipodi:ry="1.2256612"
       d="m 41.593404,39.578522 c 0,0.676914 -0.531046,1.225661 -1.186124,1.225661 -0.655078,0 -1.186124,-0.548747 -1.186124,-1.225661 0,-0.676914 0.531046,-1.225661 1.186124,-1.225661 0.655078,0 1.186124,0.548747 1.186124,1.225661 z"
       transform="matrix(0.843082,0,0,0.815886,-20.07936,6.752296)" />
    <path
       sodipodi:type="arc"
       style="opacity:0.2;fill:#555753;fill-opacity:1;stroke:none"
       id="path3247"
       sodipodi:cx="40.40728"
       sodipodi:cy="39.578522"
       sodipodi:rx="1.1861236"
       sodipodi:ry="1.2256612"
       d="m 41.593404,39.578522 c 0,0.676914 -0.531046,1.225661 -1.186124,1.225661 -0.655078,0 -1.186124,-0.548747 -1.186124,-1.225661 0,-0.676914 0.531046,-1.225661 1.186124,-1.225661 0.655078,0 1.186124,0.548747 1.186124,1.225661 z"
       transform="matrix(0.843082,0,0,0.815886,-20.07935,3.752306)" />
    <path
       sodipodi:type="arc"
       style="opacity:0.2;fill:#555753;fill-opacity:1;stroke:none"
       id="path3249"
       sodipodi:cx="40.40728"
       sodipodi:cy="39.578522"
       sodipodi:rx="1.1861236"
       sodipodi:ry="1.2256612"
       d="m 41.593404,39.578522 c 0,0.676914 -0.531046,1.225661 -1.186124,1.225661 -0.655078,0 -1.186124,-0.548747 -1.186124,-1.225661 0,-0.676914 0.531046,-1.225661 1.186124,-1.225661 0.655078,0 1.186124,0.548747 1.186124,1.225661 z"
       transform="matrix(0.843082,0,0,0.815886,-23.07938,9.752288)" />
    <path
       sodipodi:type="arc"
       style="opacity:0.2;fill:#555753;fill-opacity:1;stroke:none"
       id="path3251"
       sodipodi:cx="40.40728"
       sodipodi:cy="39.578522"
       sodipodi:rx="1.1861236"
       sodipodi:ry="1.2256612"
       d="m 41.593404,39.578522 c 0,0.676914 -0.531046,1.225661 -1.186124,1.225661 -0.655078,0 -1.186124,-0.548747 -1.186124,-1.225661 0,-0.676914 0.531046,-1.225661 1.186124,-1.225661 0.655078,0 1.186124,0.548747 1.186124,1.225661 z"
       transform="matrix(0.843082,0,0,0.815886,-23.07938,6.752286)" />
    <path
       sodipodi:type="arc"
       style="opacity:0.2;fill:#555753;fill-opacity:1;stroke:none"
       id="path3253"
       sodipodi:cx="40.40728"
       sodipodi:cy="39.578522"
       sodipodi:rx="1.1861236"
       sodipodi:ry="1.2256612"
       d="m 41.593404,39.578522 c 0,0.676914 -0.531046,1.225661 -1.186124,1.225661 -0.655078,0 -1.186124,-0.548747 -1.186124,-1.225661 0,-0.676914 0.531046,-1.225661 1.186124,-1.225661 0.655078,0 1.186124,0.548747 1.186124,1.225661 z"
       transform="matrix(0.843082,0,0,0.815886,-23.07938,3.752286)" />
    <path
       sodipodi:type="arc"
       style="opacity:0.2;fill:#555753;fill-opacity:1;stroke:none"
       id="path3255"
       sodipodi:cx="40.40728"
       sodipodi:cy="39.578522"
       sodipodi:rx="1.1861236"
       sodipodi:ry="1.2256612"
       d="m 41.593404,39.578522 c 0,0.676914 -0.531046,1.225661 -1.186124,1.225661 -0.655078,0 -1.186124,-0.548747 -1.186124,-1.225661 0,-0.676914 0.531046,-1.225661 1.186124,-1.225661 0.655078,0 1.186124,0.548747 1.186124,1.225661 z"
       transform="matrix(0.843082,0,0,0.815886,-26.07937,9.752288)" />
    <path
       sodipodi:type="arc"
       style="opacity:0.2;fill:#555753;fill-opacity:1;stroke:none"
       id="path3257"
       sodipodi:cx="40.40728"
       sodipodi:cy="39.578522"
       sodipodi:rx="1.1861236"
       sodipodi:ry="1.2256612"
       d="m 41.593404,39.578522 c 0,0.676914 -0.531046,1.225661 -1.186124,1.225661 -0.655078,0 -1.186124,-0.548747 -1.186124,-1.225661 0,-0.676914 0.531046,-1.225661 1.186124,-1.225661 0.655078,0 1.186124,0.548747 1.186124,1.225661 z"
       transform="matrix(0.843082,0,0,0.815886,-26.07937,6.752286)" />
    <path
       sodipodi:type="arc"
       style="opacity:0.2;fill:#555753;fill-opacity:1;stroke:none"
       id="path3259"
       sodipodi:cx="40.40728"
       sodipodi:cy="39.578522"
       sodipodi:rx="1.1861236"
       sodipodi:ry="1.2256612"
       d="m 41.593404,39.578522 c 0,0.676914 -0.531046,1.225661 -1.186124,1.225661 -0.655078,0 -1.186124,-0.548747 -1.186124,-1.225661 0,-0.676914 0.531046,-1.225661 1.186124,-1.225661 0.655078,0 1.186124,0.548747 1.186124,1.225661 z"
       transform="matrix(0.843082,0,0,0.815886,-26.07936,3.752296)" />
    <path
       sodipodi:type="arc"
       style="opacity:0.2;fill:#555753;fill-opacity:1;stroke:none"
       id="path3261"
       sodipodi:cx="40.40728"
       sodipodi:cy="39.578522"
       sodipodi:rx="1.1861236"
       sodipodi:ry="1.2256612"
       d="m 41.593404,39.578522 c 0,0.676914 -0.531046,1.225661 -1.186124,1.225661 -0.655078,0 -1.186124,-0.548747 -1.186124,-1.225661 0,-0.676914 0.531046,-1.225661 1.186124,-1.225661 0.655078,0 1.186124,0.548747 1.186124,1.225661 z"
       transform="matrix(0.843082,0,0,0.815886,-29.07938,9.752308)" />
    <path
       sodipodi:type="arc"
       style="opacity:0.2;fill:#555753;fill-opacity:1;stroke:none"
       id="path3263"
       sodipodi:cx="40.40728"
       sodipodi:cy="39.578522"
       sodipodi:rx="1.1861236"
       sodipodi:ry="1.2256612"
       d="m 41.593404,39.578522 c 0,0.676914 -0.531046,1.225661 -1.186124,1.225661 -0.655078,0 -1.186124,-0.548747 -1.186124,-1.225661 0,-0.676914 0.531046,-1.225661 1.186124,-1.225661 0.655078,0 1.186124,0.548747 1.186124,1.225661 z"
       transform="matrix(0.843082,0,0,0.815886,-29.07938,6.752306)" />
    <path
       sodipodi:type="arc"
       style="opacity:0.2;fill:#555753;fill-opacity:1;stroke:none"
       id="path3265"
       sodipodi:cx="40.40728"
       sodipodi:cy="39.578522"
       sodipodi:rx="1.1861236"
       sodipodi:ry="1.2256612"
       d="m 41.593404,39.578522 c 0,0.676914 -0.531046,1.225661 -1.186124,1.225661 -0.655078,0 -1.186124,-0.548747 -1.186124,-1.225661 0,-0.676914 0.531046,-1.225661 1.186124,-1.225661 0.655078,0 1.186124,0.548747 1.186124,1.225661 z"
       transform="matrix(0.843082,0,0,0.815886,-29.07938,3.752306)" />
    <path
       sodipodi:type="arc"
       style="opacity:0.2;fill:#555753;fill-opacity:1;stroke:none"
       id="path3267"
       sodipodi:cx="40.40728"
       sodipodi:cy="39.578522"
       sodipodi:rx="1.1861236"
       sodipodi:ry="1.2256612"
       d="m 41.593404,39.578522 c 0,0.676914 -0.531046,1.225661 -1.186124,1.225661 -0.655078,0 -1.186124,-0.548747 -1.186124,-1.225661 0,-0.676914 0.531046,-1.225661 1.186124,-1.225661 0.655078,0 1.186124,0.548747 1.186124,1.225661 z"
       transform="matrix(0.843082,0,0,0.815886,-29.07935,0.752306)" />
    <path
       sodipodi:type="arc"
       style="fill:#babdb6;fill-opacity:1;stroke:#888a85;stroke-width:1.15369642;stroke-linecap:round;stroke-linejoin:miter;stroke-miterlimit:4;stroke-opacity:1;stroke-dasharray:none;stroke-dashoffset:0"
       id="path3269"
       sodipodi:cx="40.172504"
       sodipodi:cy="18.87604"
       sodipodi:rx="2.8726213"
       sodipodi:ry="2.8726213"
       d="m 43.045126,18.87604 c 0,1.586504 -1.286117,2.872621 -2.872622,2.872621 -1.586505,0 -2.872621,-1.286117 -2.872621,-2.872621 0,-1.586505 1.286116,-2.872622 2.872621,-2.872622 1.586505,0 2.872622,1.286117 2.872622,2.872622 z"
       transform="matrix(0.865857,0,0,0.867701,3.203635,1.671439)" />
    <path
       sodipodi:type="arc"
       style="opacity:0.42473115;fill:none;stroke:#ffffff;stroke-width:1.88779092;stroke-linecap:round;stroke-linejoin:miter;stroke-miterlimit:4;stroke-opacity:1;stroke-dasharray:none;stroke-dashoffset:0"
       id="path3271"
       sodipodi:cx="40.172504"
       sodipodi:cy="18.87604"
       sodipodi:rx="2.8726213"
       sodipodi:ry="2.8726213"
       d="m 43.045126,18.87604 c 0,1.586504 -1.286117,2.872621 -2.872622,2.872621 -1.586505,0 -2.872621,-1.286117 -2.872621,-2.872621 0,-1.586505 1.286116,-2.872622 2.872621,-2.872622 1.586505,0 2.872622,1.286117 2.872622,2.872622 z"
       transform="matrix(0.531927,0,0,0.527521,16.61298,8.07583)" />
    <rect
       style="opacity:0.51075266;fill:#ffffff;fill-opacity:1;stroke:none"
       id="rect3273"
       width="31"
       height="4"
       x="2.9872968"
       y="20.043848" />
    <path
       inkscape:connector-curvature="0"
       style="opacity:0.58064515;fill:#1a1b19;fill-opacity:1;fill-rule:evenodd;stroke:none"
       d="m 6.5428523,20.043848 -3.5555556,4 4.4444445,0 3.5555558,-4 -4.4444447,0 z"
       id="path3275" />
    <path
       inkscape:connector-curvature="0"
       style="opacity:0.58064515;fill:#1a1b19;fill-opacity:1;fill-rule:evenodd;stroke:none"
       d="m 15.542853,20.043848 -3.555556,4 4.444445,0 3.555555,-4 -4.444444,0 z"
       id="path3277" />
    <path
       inkscape:connector-curvature="0"
       style="opacity:0.58064515;fill:#1a1b19;fill-opacity:1;fill-rule:evenodd;stroke:none"
       d="m 24.542853,20.043848 -3.555556,4 4.444445,0 3.555555,-4 -4.444444,0 z"
       id="path3279" />
    <path
       inkscape:connector-curvature="0"
       style="opacity:0.8;fill:none;stroke:#ffffff;stroke-width:1.00000012px;stroke-linecap:butt;stroke-linejoin:miter;stroke-opacity:1"
       d="m 3.5093078,20.546615 0,21.585614 c 0.028391,1.007599 0.7253091,1.484868 1.5271694,1.415931 l 35.8970168,0 c 1.027758,-0.06717 1.637518,-0.542678 1.575058,-1.415931 l 0,-27.602941 -8.985134,0 0,6.017327 -30.0141102,0 z"
       id="path3281"
       sodipodi:nodetypes="ccccccccc" />
    <g
       id="g3283"
       transform="translate(-0.00375939,0.039361)">
      <path
         transform="matrix(1.394426,0,0,1.397041,-20.64242,-17.20969)"
         d="m 48.131568,37.714081 c 0,4.346229 -3.523315,7.869544 -7.869544,7.869544 -4.346229,0 -7.869544,-3.523315 -7.869544,-7.869544 0,-4.346229 3.523315,-7.869544 7.869544,-7.869544 4.346229,0 7.869544,3.523315 7.869544,7.869544 z"
         sodipodi:ry="7.869544"
         sodipodi:rx="7.869544"
         sodipodi:cy="37.714081"
         sodipodi:cx="40.262024"
         id="path3285"
         style="fill:#555753;fill-opacity:1;stroke:#2e3436;stroke-width:0.71646953;stroke-linecap:round;stroke-linejoin:miter;stroke-miterlimit:4;stroke-opacity:1;stroke-dasharray:none;stroke-dashoffset:0"
         sodipodi:type="arc" />
      <path
         transform="matrix(1.270384,0,0,1.271689,-15.62291,-12.44712)"
         d="m 48.131568,37.714081 c 0,4.346229 -3.523315,7.869544 -7.869544,7.869544 -4.346229,0 -7.869544,-3.523315 -7.869544,-7.869544 0,-4.346229 3.523315,-7.869544 7.869544,-7.869544 4.346229,0 7.869544,3.523315 7.869544,7.869544 z"
         sodipodi:ry="7.869544"
         sodipodi:rx="7.869544"
         sodipodi:cy="37.714081"
         sodipodi:cx="40.262024"
         id="path3287"
         style="opacity:0.5;fill:none;stroke:#ffffff;stroke-width:0.78675979;stroke-linecap:round;stroke-linejoin:miter;stroke-miterlimit:4;stroke-opacity:1;stroke-dasharray:none;stroke-dashoffset:0"
         sodipodi:type="arc" />
      <text
         transform="scale(0.997997,1.002007)"
         sodipodi:linespacing="125%"
         id="text3289"
         y="42.622952"
         x="29.695"
         style="font-size:17.77074623px;font-style:normal;font-variant:normal;font-weight:bold;font-stretch:normal;text-align:start;line-height:125%;writing-mode:lr-tb;text-anchor:start;fill:#ffffff;fill-opacity:1;stroke:none;font-family:Bitstream Vera Sans"
         xml:space="preserve"><tspan
           y="42.622952"
           x="29.695"
           id="tspan3291"
           sodipodi:role="line">5</tspan></text>
      <path
         inkscape:connector-curvature="0"
         sodipodi:nodetypes="ccc"
         id="path3293"
         d="m 35.5,23.444694 0,13.055306 12.05018,0"
         style="fill:none;stroke:#2e3436;stroke-width:1px;stroke-linecap:round;stroke-linejoin:miter;stroke-opacity:1" />
      <path
         inkscape:connector-curvature="0"
         sodipodi:nodetypes="ccczc"
         id="path3295"
         d="M 35.967347,24.046481 36,36 47.036795,36.03265 c 0,0 0.364314,-4.800587 -3.219391,-8.428175 -3.600556,-3.644646 -7.850057,-3.557998 -7.850057,-3.557998 z"
         style="opacity:0.7;fill:#eeeeec;fill-opacity:1;fill-rule:evenodd;stroke:none" />
      <path
         inkscape:connector-curvature="0"
         style="fill:none;stroke:#2e3436;stroke-width:1px;stroke-linecap:round;stroke-linejoin:miter;stroke-opacity:1"
         d="m 35.465718,45.460137 0,2.124249"
         id="path3297"
         transform="translate(0.00375939,-0.039361)" />
      <path
         inkscape:connector-curvature="0"
         style="fill:none;stroke:#2e3436;stroke-width:1px;stroke-linecap:round;stroke-linejoin:miter;stroke-opacity:1"
         d="m 25.628008,36.460639 -2.124249,0"
         id="path3299" />
    </g>
  </g>
</svg>
